<svg xmlns="http://www.w3.org/2000/svg" xmlns:xlink="http://www.w3.org/1999/xlink" width="519" height="571.504" viewBox="0 0 519 571.504">
  <defs>
    <clipPath id="clip-path">
      <path id="Path_123" data-name="Path 123" d="M1165.007,270.762a35.772,35.772,0,0,1-.21,4.7c-.232,1.422-1.18,2.814-.922,4.407a2.9,2.9,0,0,0,.382,1.009,2.781,2.781,0,0,1,.282-.225l.046-.026a27.451,27.451,0,0,1,3.564-1.423,24.408,24.408,0,0,1-3.142-8.445" transform="translate(-1163.831 -270.762)" fill="none"/>
    </clipPath>
  </defs>
  <g id="Group_3" data-name="Group 3" transform="translate(-167.991 -44)">
    <path id="Path_1" data-name="Path 1" d="M783.132,1914.606c0,9.888-104.95,17.9-234.411,17.9s-234.412-8.016-234.412-17.9,104.949-17.9,234.412-17.9S783.132,1904.719,783.132,1914.606Z" transform="translate(-104.011 -1317.007)" fill="#99d5eb"/>
    <path id="Path_2" data-name="Path 2" d="M171.86,224.9c-4.589,16.356-5.539,33.435-.422,50.482,4.647,15.483,13.375,29.306,22.726,42.34,5.068,7.065,10.854,13.7,15.395,21.127a68.821,68.821,0,0,1,8.66,24.514c5.209,30.484-5.505,61.953,7.621,91.272,6.6,14.746,17.981,26.145,30.807,35.818.651.574,1.308,1.145,1.989,1.724a133.241,133.241,0,0,0,29.617,18.849q3.612,2.187,7.217,4.389a3.068,3.068,0,0,0,3.326.009A119.771,119.771,0,0,0,325.431,522c13.9,3.432,28.3,4.535,42.266,1.28,22.35-5.21,36.03-24.594,54.647-36.242,19.574-12.245,45.393-11.068,67.56-10.087,16.735.741,36.563,1.911,53.218-3.515a70.1,70.1,0,0,0,22.83-7.151,93.921,93.921,0,0,0,18.506-11.966c9.187-7.331,17.694-16.305,22.97-26.883,6.549-13.135,6.194-28.795,5.253-43.042-.522-7.893-1.869-15.678-.518-23.555,1.083-6.314,4.9-11.743,9.02-16.452A134.9,134.9,0,0,1,651.135,319.4c10.314-6.424,20.691-12.71,27.558-23.044,6.48-9.752,8.287-21.751,8.3-33.229.007-9.752-1.363-20.394-5.794-29.276a102.46,102.46,0,0,0-9.719-35.04c-16.206-32.857-39.134-45.035-72.99-49.147-38.332-4.655-56.2-19.654-78.249-50.37-16.473-22.945-47.216-44.835-74.655-51.479l-.1-.029-.085-.018c-1.024-.243-2.044-.474-3.059-.677-2.218-.444-4.527-.787-6.894-1.052-28.824-4.308-61.165-2.782-85.363,14.208-11.986,8.412-18.347,21.486-26.772,32.985a32.25,32.25,0,0,1-20.5,13.238c-8.239,1.7-16.788,1.417-25.1,2.7-26.185,4.059-52.691,16.583-72.187,34.478-19.454,17.856-30.667,42.282-33.214,68.406a123.078,123.078,0,0,0-.477,12.646l.018.194m53.413,144.744a78.056,78.056,0,0,0-15.229-41.178c-10.391-14.018-21.035-27.646-28.359-43.611a80.045,80.045,0,0,1-6.3-45.54c-.071,6.58.169,13.041.622,19.223,2.192,29.93,20.912,53.269,40.8,74.747,26.049,28.129,14.064,47.4,12.159,82.323-.71,12.975-.618,23.693,1.264,33.284-9.648-24.768-3-53.129-4.952-79.249m379-28.11c15.576-25.293,51.74-26.077,66.187-51.34a87.827,87.827,0,0,0,10.564-33.377c1.237,14.44-2.291,29.82-10.536,40.161-7.349,9.212-18.89,14.572-28.549,20.919-9.485,6.229-18.2,14.526-25.868,22.865a40.461,40.461,0,0,0-10.83,28.6c.15,14.957,2.964,29.241.2,44.2-1.748,9.433-6.589,17.308-12.722,24.248q1.606-3.148,3.068-6.641c12.321-29.488-8.474-62.074,8.489-89.628M464.02,470.313c-13.606.483-27.206,2.491-39.351,8.262-19.244,9.145-31.728,27.961-51.473,36.35a51.731,51.731,0,0,1-6.668,2.3,63.855,63.855,0,0,0,23.386-16.715c12.941-14.554,21.24-22.805,41.317-27.681,10.278-2.494,21.36-2.951,32.79-2.52m-257.806-318.6c19.12-19.7,45.976-31.34,72.64-36.37,14.453-2.727,29.271-.447,41.644-9.972C332.279,96.3,337.391,80.736,347.866,70.3c9.508-9.466,22.431-14.372,35.436-17.155-11.354,4.494-21.529,10.964-28.743,19.464-10.335,12.17-14.028,27.947-27.94,38.159-13.289,9.757-30.652,9.415-45.757,13.394-29.055,7.652-64.336,17.731-83.949,42.184a89.472,89.472,0,0,0-15.178,29.136,97.773,97.773,0,0,1,24.477-43.771" fill="#99d5eb"/>
    <path id="Path_3" data-name="Path 3" d="M752.79,1576.071,742.428,1427.5H734.2l10.361,148.574Z" transform="translate(-402.496 -983.468)" fill="#c4c5c5"/>
    <rect id="Rectangle_3" data-name="Rectangle 3" width="100.086" height="5.86" transform="translate(282.392 520.306)" fill="#ddd6d2"/>
    <rect id="Rectangle_4" data-name="Rectangle 4" width="87.327" height="3.936" transform="translate(286.823 440.092)" fill="#131527"/>
    <rect id="Rectangle_5" data-name="Rectangle 5" width="44.167" height="3.936" transform="translate(333.884 440.092)" fill="#23294c"/>
    <path id="Path_4" data-name="Path 4" d="M753.911,1361.493H706.138c-5.154,0-9.337-4.765-9.337-10.643s4.183-10.644,9.337-10.644h47.773s12.323-.285,11.592,12.163C765.5,1352.369,765.022,1361.493,753.911,1361.493Z" transform="translate(-375.908 -921.417)" fill="#1e2228"/>
    <path id="Path_5" data-name="Path 5" d="M538.941,1350.851c0,5.878,4.181,10.643,9.34,10.643h47.547c5.157,0,9.339-4.765,9.339-10.643s-4.182-10.644-9.339-10.644H548.281C543.122,1340.207,538.941,1344.972,538.941,1350.851Z" transform="translate(-263.693 -921.418)" fill="#191c22"/>
    <path id="Path_6" data-name="Path 6" d="M683.868,1576.071,694.753,1427.5h-8.225l-10.884,148.574Z" transform="translate(-360.869 -983.468)" fill="#d2d2d2"/>
    <path id="Path_7" data-name="Path 7" d="M884.645,1576.071,873.76,1427.5h-8.225l10.886,148.574Z" transform="translate(-495.854 -983.468)" fill="#d2d2d2"/>
    <path id="Path_8" data-name="Path 8" d="M531.83,1576.071,547.9,1427.5h-8.225l-16.066,148.574Z" transform="translate(-252.791 -983.468)" fill="#d2d2d2"/>
    <path id="Path_9" data-name="Path 9" d="M975.562,1180.766l15.426,1.825,21.923,13.53s1.6,4.664-4.958,2.693L973.269,1188.4Z" transform="translate(-572.438 -808.078)" fill="#ae5c3d"/>
    <path id="Path_10" data-name="Path 10" d="M758.129,1212.813l15.426,1.825,21.924,13.53s1.6,4.662-4.959,2.694l-34.684-10.419Z" transform="translate(-417.874 -830.859)" fill="#ae5c3d"/>
    <path id="Path_11" data-name="Path 11" d="M825.294,1029.7s2.177,20.265,33.017,43.127l-3.273,7.261s-52.312-22.533-48.43-51.491C806.607,1028.6,809.533,1028.4,825.294,1029.7Z" transform="translate(-453.818 -699.901)" fill="#ae5c3d"/>
    <path id="Path_12" data-name="Path 12" d="M757.9,1662.3c-2.032,2.07-7.878,8.287-8.619,12.11-.9,4.641,1.958,18.77,1.958,18.77l1.056,7.481s-2.138,6.507-10.771-5.75c-9.852-13.982-11.553-37.313-11.553-37.313l21.935-6.246Z" transform="translate(-399.486 -1142.594)" fill="#ae5c3d"/>
    <path id="Path_13" data-name="Path 13" d="M737.051,1670.991c.547,1.052,2.012,2.731,3.336,2.82,1.122.07,3.676-.51,4.305.421a17.949,17.949,0,0,1,1.315,2.539,14.614,14.614,0,0,0-2.552,5.017c-.9,4.641,1.958,18.769,1.958,18.769l1.715,8.821s-2.619,4.923-10.759-4.026c-10.083-11.094-14.592-40.372-14.592-40.372l13.756-3.249A16.4,16.4,0,0,0,737.051,1670.991Z" transform="translate(-393.663 -1149.977)" fill="#21252c"/>
    <path id="Path_14" data-name="Path 14" d="M737.051,1670.991c.547,1.052,2.012,2.731,3.336,2.82,1.122.07,3.676-.51,4.305.421a17.949,17.949,0,0,1,1.315,2.539,14.614,14.614,0,0,0-2.552,5.017c-.9,4.641,1.958,18.769,1.958,18.769l1.715,8.821s-2.619,4.923-10.759-4.026c-10.083-11.094-14.592-40.372-14.592-40.372l13.756-3.249A16.4,16.4,0,0,0,737.051,1670.991Z" transform="translate(-393.663 -1149.977)" fill="#de2e34"/>
    <path id="Path_15" data-name="Path 15" d="M715.344,1672.969s4.509,29.278,14.592,40.372c8.14,8.949,10.759,4.025,10.759,4.025s-4.222,8.469-13.111-2.445c0,0-11.588-13.671-14.857-41.235A9.073,9.073,0,0,1,715.344,1672.969Z" transform="translate(-387.229 -1157.964)" fill="#fbccb9"/>
    <path id="Path_16" data-name="Path 16" d="M768.8,1724.9a.713.713,0,0,1,.6-.77c5.92-.951,7.959,2.347,8.044,2.486a.718.718,0,0,1-.251.984.71.71,0,0,1-.976-.248c-.081-.122-1.7-2.6-6.589-1.809a.715.715,0,0,1-.82-.592Z" transform="translate(-427.086 -1194.209)" fill="#fff"/>
    <path id="Path_17" data-name="Path 17" d="M771.661,1740.551a.7.7,0,0,1,.539-.748c4.958-1.194,7.221,1.4,7.317,1.509a.706.706,0,0,1-1.073.918c-.079-.089-1.849-2.033-5.913-1.055a.708.708,0,0,1-.853-.521Z" transform="translate(-429.121 -1205.25)" fill="#fff"/>
    <path id="Path_18" data-name="Path 18" d="M771.281,1753.14a.741.741,0,0,1,.566-.791c5.171-1.242,7.536,1.081,7.634,1.179a.743.743,0,0,1-1.055,1.047c-.085-.083-1.945-1.814-6.235-.784a.739.739,0,0,1-.893-.546Z" transform="translate(-428.851 -1214.133)" fill="#fff"/>
    <path id="Path_19" data-name="Path 19" d="M774.5,1765.559a.719.719,0,0,1,.552-.767c5.154-1.242,6.926,1.583,7,1.7a.723.723,0,0,1-1.232.755c-.068-.1-1.378-2.029-5.427-1.054a.727.727,0,0,1-.874-.536Z" transform="translate(-431.137 -1223.013)" fill="#fff"/>
    <path id="Path_20" data-name="Path 20" d="M778.435,1780.715a.666.666,0,0,1,.507-.7c4.713-1.136,6.334,1.453,6.4,1.564a.661.661,0,0,1-1.128.689c-.056-.089-1.255-1.859-4.964-.968a.66.66,0,0,1-.8-.487Z" transform="translate(-433.937 -1233.852)" fill="#fff"/>
    <path id="Path_21" data-name="Path 21" d="M883.889,1784.546c.324,2.882,1.458,11.342,3.956,14.328,3.036,3.624,15.8,10.321,15.8,10.321l6.471,3.9s3.7,5.765-11.258,4.73c-17.063-1.178-36.237-14.579-36.237-14.579l8.992-20.958Z" transform="translate(-493.783 -1235.675)" fill="#ae5c3d"/>
    <path id="Path_22" data-name="Path 22" d="M871.758,1821.81c1.162.24,3.39.161,4.294-.81.763-.826,1.927-3.175,3.044-3.077a18.5,18.5,0,0,1,2.8.583,14.525,14.525,0,0,0,2.279,5.147c3.036,3.624,15.8,10.321,15.8,10.321l7.925,4.235s2.171,5.138-9.912,5.807c-14.969.826-40.529-14.147-40.529-14.147l6.16-12.721A16.4,16.4,0,0,0,871.758,1821.81Z" transform="translate(-490.115 -1260.454)" fill="#21252c"/>
    <path id="Path_23" data-name="Path 23" d="M871.758,1821.81c1.162.24,3.39.161,4.294-.81.763-.826,1.927-3.175,3.044-3.077a18.5,18.5,0,0,1,2.8.583,14.525,14.525,0,0,0,2.279,5.147c3.036,3.624,15.8,10.321,15.8,10.321l7.925,4.235s2.171,5.138-9.912,5.807c-14.969.826-40.529-14.147-40.529-14.147l6.16-12.721A16.4,16.4,0,0,0,871.758,1821.81Z" transform="translate(-490.115 -1260.454)" fill="#de2e34"/>
    <path id="Path_24" data-name="Path 24" d="M854.773,1861.145s25.56,14.973,40.529,14.147c12.083-.668,9.912-5.807,9.912-5.807s3.908,8.618-10.171,8.629c0,0-17.917.366-41.363-14.485A9.117,9.117,0,0,1,854.773,1861.145Z" transform="translate(-487.427 -1291.73)" fill="#fbccb9"/>
    <path id="Path_25" data-name="Path 25" d="M928.442,1845.005a.715.715,0,0,1-.22-.95c3-5.192,6.845-4.7,7.006-4.673a.716.716,0,0,1-.2,1.417c-.147-.017-3.088-.32-5.564,3.97a.713.713,0,0,1-.974.264Z" transform="translate(-540.348 -1276.244)" fill="#fff"/>
    <path id="Path_26" data-name="Path 26" d="M942.635,1852.914a.7.7,0,0,1-.239-.889c2.2-4.6,5.639-4.72,5.787-4.725a.706.706,0,0,1,.035,1.412c-.119.005-2.743.152-4.548,3.922a.707.707,0,0,1-.941.332Z" transform="translate(-550.44 -1281.889)" fill="#fff"/>
    <path id="Path_27" data-name="Path 27" d="M952.294,1860.053a.741.741,0,0,1-.256-.938c2.3-4.8,5.592-5.165,5.732-5.18a.743.743,0,0,1,.147,1.479c-.118.014-2.635.367-4.54,4.344a.737.737,0,0,1-.986.348Z" transform="translate(-557.293 -1286.603)" fill="#fff"/>
    <path id="Path_28" data-name="Path 28" d="M963.842,1867.345a.725.725,0,0,1-.249-.911c2.291-4.783,5.6-4.374,5.741-4.354a.722.722,0,0,1-.192,1.431c-.119-.009-2.444-.211-4.245,3.548a.726.726,0,0,1-.967.338Z" transform="translate(-565.509 -1292.383)" fill="#fff"/>
    <path id="Path_29" data-name="Path 29" d="M977.984,1874.819a.667.667,0,0,1-.226-.838c2.093-4.373,5.123-4,5.252-3.977a.661.661,0,0,1-.18,1.31c-.1-.011-2.232-.2-3.882,3.24a.66.66,0,0,1-.878.312Z" transform="translate(-575.582 -1298.017)" fill="#fff"/>
    <path id="Path_30" data-name="Path 30" d="M704,482.673c-1.005,11.718-14.087-2.372-16.273-6.406-2.1-3.875-3.675-8.147-1.3-12.132,1.158-1.946,4.862-4.6,7.251-4.059,1.98.442,3.541,2.623,4.673,4.153C701.934,469.076,704.522,476.6,704,482.673Z" transform="translate(-367.688 -295.72)" fill="#2d1807"/>
    <path id="Path_31" data-name="Path 31" d="M588.506,531.2c-.754-.668-8.014-7.456-8.518-7.879-8.47-7.134-17.538-24.394-8.848-33.806,10.411-11.289,20.716,10,24.418,15.47,4.285,6.328,8.52,13.338,8.984,21.1.172,2.926-.561,7.887-3.456,9.069C597.879,536.465,592.1,534.372,588.506,531.2Z" transform="translate(-284.073 -314.388)" fill="#2d1807"/>
    <path id="Path_32" data-name="Path 32" d="M601.42,575.866c1.2,4.02,4.856,7.853,8.978,8.378,5.593.716,6.06-4.355,4.68-8.742-1.109-3.532-4.582-9.128-8.978-9.119C601.949,566.391,600.43,572.567,601.42,575.866Z" transform="translate(-307.899 -371.34)" fill="#ae5c3d"/>
    <path id="Path_33" data-name="Path 33" d="M652.143,602.8l25.123.02-.028,31.24-25.12-.02Z" transform="translate(-344.145 -397.225)" fill="#ae5c3d"/>
    <path id="Path_34" data-name="Path 34" d="M669.667,620.109a33.527,33.527,0,0,1-3.6-17.3l21.063.017-.023,27.151C680.5,628.961,672.353,625.743,669.667,620.109Z" transform="translate(-354.014 -397.233)" fill="#9a4933"/>
    <path id="Path_35" data-name="Path 35" d="M621.466,509.93c4.109,5.043,8.729,8.792,15.21,10.418,6.34,1.588,12.355,1.53,16.152-4.315,3.018-4.655,4.116-10.4,4.04-15.819-.173-12.474-7.742-27.43-17.883-34.333-11.132-7.582-25.8-.5-28.2,12.627C608.839,489.194,614.83,501.786,621.466,509.93Z" transform="translate(-314.5 -297.687)" fill="#ae5c3d"/>
    <path id="Path_36" data-name="Path 36" d="M610.594,583.035a4.412,4.412,0,0,1,2.781,2.394,11.9,11.9,0,0,1,1.388,5.4.723.723,0,1,0,1.445-.047,13.319,13.319,0,0,0-1.575-6.066,5.811,5.811,0,0,0-3.777-3.1.724.724,0,1,0-.262,1.423Z" transform="translate(-314.206 -382.156)" fill="#9a4d33"/>
    <path id="Path_37" data-name="Path 37" d="M608.948,593.271a6.755,6.755,0,0,1,1.323-.891,3.283,3.283,0,0,1,1.391-.4l.346.041a.723.723,0,0,0,.363-1.4,2.83,2.83,0,0,0-.708-.087,4.634,4.634,0,0,0-2.041.553A8.089,8.089,0,0,0,608,592.174a.724.724,0,0,0,.944,1.1Z" transform="translate(-312.607 -388.508)" fill="#9a4d33"/>
    <path id="Path_38" data-name="Path 38" d="M668.69,579.581c.307.895,2.2,1.054,4.223.354s3.421-1.989,3.108-2.885-2.2-1.051-4.223-.352S668.385,578.687,668.69,579.581Z" transform="translate(-355.895 -378.362)" fill="#9f4b34"/>
    <path id="Path_39" data-name="Path 39" d="M732.2,561.644c.311.9,2.2,1.054,4.225.354s3.417-1.988,3.1-2.883-2.2-1.053-4.222-.354S731.9,560.75,732.2,561.644Z" transform="translate(-401.043 -365.612)" fill="#9f4b34"/>
    <path id="Path_40" data-name="Path 40" d="M703.159,533.287a10.6,10.6,0,0,1-.614,1.063,3.687,3.687,0,0,0-.536,1.861,5.761,5.761,0,0,0,1.437,3.42,30.334,30.334,0,0,0,5.316,5.065c.375.307.408.482.411.588a.837.837,0,0,1-.278.526,4.555,4.555,0,0,1-1.638,1.007,5.932,5.932,0,0,1-2.024.428.723.723,0,1,0,0,1.447,7.667,7.667,0,0,0,3.359-.9,5.084,5.084,0,0,0,1.366-1.005,2.252,2.252,0,0,0,.661-1.507,2.224,2.224,0,0,0-.96-1.722,29.173,29.173,0,0,1-5.063-4.806,4.4,4.4,0,0,1-1.142-2.545,2.254,2.254,0,0,1,.349-1.148,9.8,9.8,0,0,0,.7-1.256.723.723,0,1,0-1.349-.521Z" transform="translate(-379.61 -347.484)" fill="#9a4d33"/>
    <path id="Path_41" data-name="Path 41" d="M656.849,541.436a5.017,5.017,0,0,1,1.829-1.687,5.286,5.286,0,0,1,2.541-.713,3.485,3.485,0,0,1,1.234.213,1.3,1.3,0,0,0,.918-2.428,6.068,6.068,0,0,0-2.153-.383,7.889,7.889,0,0,0-3.816,1.047,7.59,7.59,0,0,0-2.777,2.608,1.3,1.3,0,1,0,2.223,1.343Z" transform="translate(-345.795 -350.053)" fill="#2d1807"/>
    <path id="Path_42" data-name="Path 42" d="M707.849,517.393a5.03,5.03,0,0,1,1.829-1.687,5.289,5.289,0,0,1,2.541-.714,3.484,3.484,0,0,1,1.234.215,1.3,1.3,0,1,0,.918-2.428,6.062,6.062,0,0,0-2.153-.383,7.874,7.874,0,0,0-3.814,1.047,7.581,7.581,0,0,0-2.778,2.608,1.3,1.3,0,1,0,2.223,1.343Z" transform="translate(-382.049 -332.962)" fill="#2d1807"/>
    <path id="Path_43" data-name="Path 43" d="M672.482,563.706a3.76,3.76,0,0,0,1.3.221,3.817,3.817,0,0,0,1.809-.451,4.631,4.631,0,0,0,1.8-1.834.721.721,0,1,0-1.249-.719,3.2,3.2,0,0,1-1.232,1.283,2.357,2.357,0,0,1-1.126.279,2.572,2.572,0,0,1-.583-.067l-.156-.042-.032-.011-.027.075.029-.073h0l-.027.075.029-.073a.721.721,0,1,0-.535,1.34Z" transform="translate(-358.298 -367.201)" fill="#161d2f"/>
    <path id="Path_44" data-name="Path 44" d="M720.294,541.577a3.775,3.775,0,0,0,1.3.221,3.813,3.813,0,0,0,1.808-.45,4.633,4.633,0,0,0,1.8-1.834.721.721,0,1,0-1.249-.719,3.206,3.206,0,0,1-1.232,1.283,2.359,2.359,0,0,1-1.126.279,2.6,2.6,0,0,1-.584-.067l-.156-.042-.031-.011-.027.076.029-.075h0l-.027.076.029-.075a.721.721,0,1,0-.535,1.34Z" transform="translate(-392.286 -351.471)" fill="#161d2f"/>
    <path id="Path_45" data-name="Path 45" d="M586.918,511.591a111.91,111.91,0,0,0,2.631,12.357c.424,1.591,1.5,3.663,1.562,5.317-.066-1.923,1.3-6.2,4.751-4.639,1.44.651,2.693,4.716,3.786,5.777,1.024,1,1.422,1.244,4.086,1.382-3.437-7.768-4.572-9.4-3.63-15.084C600.1,516.7,592.662,495.119,586.918,511.591Z" transform="translate(-297.797 -327.986)" fill="#2d1807"/>
    <path id="Path_46" data-name="Path 46" d="M775.058,787.94c-1.212-21.847,9.7-21.8,9.7-21.8,12.468-1.806,16.124,17.266,16.124,17.266s4.356,41.789,2.272,60.085c0,0-13.729,6.6-18.579-5.458Z" transform="translate(-431.471 -513.254)" fill="#ae5c3d"/>
    <path id="Path_47" data-name="Path 47" d="M775.42,1193.012c-74.155,1.593-107.354-6.405-107.354-6.405-31.919-25.6-4.172-57.7-4.172-57.7,19.533-14.148,41.718-.8,41.718-.8l82.088,31.51s12.951,2.257,15.115,18.124h0S800.675,1191.691,775.42,1193.012Z" transform="translate(-344.567 -766.593)" fill="#152b4d"/>
    <path id="Path_48" data-name="Path 48" d="M659.127,1334.57c7.213,6.252,17.687,3.875,17.687,3.875,6.62-29.36,24.427-98.664,25.85-131.076,0,0,1.749-10.726-12.058-21.625-36.253-28.6-81.969-37.929-81.969-37.929s-35.342-7.212-40.269,30.915c-1.04,8.044,7.034,20.344,12.6,25.239,7.175,6.317,16.422,7.995,25.616,9.127,5.663.7,11.309,1.391,16.946,2.251,3.6.547,33.826,2.392,36.624,5.041C660.155,1220.389,649.316,1275.172,659.127,1334.57Z" transform="translate(-284.547 -784.269)" fill="#152b4d"/>
    <path id="Path_49" data-name="Path 49" d="M566.624,699.664,525.758,714.7l22.5,100.751h53.859l12.18-99.6-28.546-16.192Z" transform="translate(-254.321 -466.083)" fill="#ae5c3d"/>
    <path id="Path_50" data-name="Path 50" d="M580.625,699.664,607.938,713.4,596.652,814.727c-10.885,5.53-16.99,2.007-33.821,1.985-5.379-.006-21.331,2.942-23.669-2.71-1.421-3.434-5.424-10.667-5.3-14.313s-3.88-9.584-4.178-13.231-.228-7.264-2.015-10.537c-3.322-6.1-3.273-15.13-4.787-21.979-1.535-6.951-2.577-10.4-2.583-17.545,0-3.8-3.257-8.049-4.189-11.743-.989-3.924-.435-8.659,3.443-10.43,3.443-1.578,7.364-2.562,10.935-3.88l23.478-8.928S575.407,708.251,580.625,699.664Z" transform="translate(-247.157 -466.083)" fill="#00a4b7"/>
    <path id="Path_51" data-name="Path 51" d="M754.95,798.483l-8.274-34.711s-1.832-24.056,16.121-33.315c0,0,17.774,4.786,19.29,22.184l5.187,36.964S785.4,798.472,754.95,798.483Z" transform="translate(-411.325 -487.973)" fill="#00a4b7"/>
    <path id="Path_52" data-name="Path 52" d="M553.341,827.362s-2.451,22.838-.549,35.216c1.056,6.88-.194,12.54-1.865,19.147-.829,3.263-2.443,6.486-2.48,9.9-.03,3.255.865,6.491.9,9.8.085,6.49,1.508,12.814.194,19.213a41.775,41.775,0,0,0-1.005,10.542c.217,4.091,3.739,24.864,4.254,28.879,14.767.656,14.1-10.847,18.488-21.988,7.993-20.287,30.451-23.137,49.314-21.24,4.909.492,13.228,1.9,17.7-1.155,4.762-3.259-8.516-25.5-7.068-31.325,1.586-6.379,1.757-9.729-.361-15.643a183.673,183.673,0,0,1-6.627-21.9c-1.448-6.482-2.919-12.789-7.976-17.491-14.746-13.7-40.039-11.349-57.154-4.406Z" transform="translate(-270.45 -551.17)" fill="#00a4b7"/>
    <path id="Path_53" data-name="Path 53" d="M674.774,711.312a11.393,11.393,0,0,1-5.789,2.856,44.8,44.8,0,0,1-9.122,1.142c-.712.026-1.427.042-2.142.042a25.8,25.8,0,0,1-7.07-.834,23.822,23.822,0,0,1-5.271-2.352.722.722,0,0,0-.729,1.246,25.309,25.309,0,0,0,5.6,2.494,27.248,27.248,0,0,0,7.466.889c.738,0,1.469-.017,2.195-.044a46.222,46.222,0,0,0,9.417-1.183,12.8,12.8,0,0,0,6.456-3.232.721.721,0,0,0-1.014-1.026Z" transform="translate(-338.584 -474.216)" fill="#161d2f" opacity="0.14"/>
    <path id="Path_54" data-name="Path 54" d="M626.7,1125.654c-3.323.734-6.492.513-9.673.713a15.548,15.548,0,0,0-9.538,3.47c-7.5,6.2-9.878,16.264-12.434,25.543a65.172,65.172,0,0,1-4.52,12.807,17.551,17.551,0,0,1-8.254,8.352.721.721,0,1,0,.6,1.311,19,19,0,0,0,8.935-8.993c3.045-5.828,4.51-13.153,6.589-20.1s4.746-13.488,10-17.8a14.074,14.074,0,0,1,8.716-3.145c3.043-.2,6.316.039,9.89-.743a.722.722,0,0,0-.311-1.41Z" transform="translate(-294.203 -768.889)" fill="#161d2f" opacity="0.14"/>
    <path id="Path_55" data-name="Path 55" d="M584.935,1124.388a8.208,8.208,0,0,1-1.794,1.01,10.284,10.284,0,0,0-5.856,4.886c-1.838,3.259-2.4,7.351-3.15,11.2s-1.684,7.434-3.964,9.685h0l.089.089-.079-.1-.01.01.089.089-.079-.1c-.017.021-.236.142-.478.294a2.045,2.045,0,0,0-.761.775.722.722,0,0,0,1.29.65.879.879,0,0,1,.284-.233l.306-.182a1.965,1.965,0,0,0,.367-.272h0a14.583,14.583,0,0,0,3.486-6.592c1.047-3.739,1.439-7.906,2.525-11.393a13.814,13.814,0,0,1,2.256-4.573,8.659,8.659,0,0,1,4.147-2.87,9.375,9.375,0,0,0,2.139-1.181.721.721,0,1,0-.805-1.2Z" transform="translate(-284.963 -767.914)" fill="#161d2f" opacity="0.14"/>
    <path id="Path_56" data-name="Path 56" d="M524.049,858.789c-7.306,9.373-14.7,10.712-25.228,3.24-1.356-4.292-2.608-8.621-3.785-12.968-6.538-24.169-5.267-64.376,4.4-75.22,7.183-8.053,19.081-6.454,25.35,2.541,6.98,10.024-2.618,40.983-2.254,57.115A202.46,202.46,0,0,0,524.049,858.789Z" transform="translate(-229.594 -515.104)" fill="#ae5c3d"/>
    <path id="Path_57" data-name="Path 57" d="M487.559,807.574l3.136-45.916c2.066-11.132,8.445-14.095,9.8-14.34,20.723-3.754,24.547,19.758,24.547,19.758l.3,51.029S496.032,816.347,487.559,807.574Z" transform="translate(-227.167 -499.67)" fill="#00a4b7"/>
    <path id="Path_58" data-name="Path 58" d="M562.263,745.629c2.637,2.643,5.671,4.937,7.3,8.043,3.327,6.289,5.389,11.291,5.389,17.075a27.352,27.352,0,0,1-.635,5.738c-.465,2.2-.846,5.677-1.225,9.161s-.757,6.961-1.181,9.029c-.48,2.345-.867,5.585-1.279,8.81a84.274,84.274,0,0,1-1.395,8.626.721.721,0,1,0,1.4.349,84.623,84.623,0,0,0,1.428-8.792c.411-3.229.8-6.459,1.26-8.7.448-2.2.821-5.679,1.2-9.162s.764-6.956,1.2-9.019a28.774,28.774,0,0,0,.667-6.037c0-6.151-2.2-11.418-5.556-17.75-1.855-3.481-5.036-5.834-7.555-8.384a.722.722,0,0,0-1.024,1.016Z" transform="translate(-280.122 -497.884)" fill="#161d2f" opacity="0.14"/>
    <path id="Path_59" data-name="Path 59" d="M857.371,1289.6s-37,32.385-78.3,96.884c0,0,3.891,12.978,15.412,17.179,0,0,85.827-72.28,98.895-96.6C893.38,1307.059,901.057,1263.5,857.371,1289.6Z" transform="translate(-434.393 -879.52)" fill="#152b4d"/>
    <path id="Path_60" data-name="Path 60" d="M820.518,1186.273c15.292,7.545,36.388,15.24,49.38,26.35a30.4,30.4,0,0,1,8.977,13.244,48.88,48.88,0,0,1,2.486,16.319c0,12.958-3.587,26.839-6.194,37.749-1.651,6.917-3.31,13.846-5.158,20.7a.721.721,0,1,0,1.394.374c1.856-6.878,3.516-13.822,5.167-20.739,2.6-10.895,6.231-24.867,6.234-38.083a50.306,50.306,0,0,0-2.568-16.8,31.872,31.872,0,0,0-9.4-13.862c-13.317-11.36-34.494-19.035-49.676-26.545a.722.722,0,0,0-.64,1.293Z" transform="translate(-463.568 -811.02)" fill="#161d2f"/>
    <path id="Path_61" data-name="Path 61" d="M722.183,1376.777c5.158.68,12.879,1.061,16.251,1.44,3.5.391,8.769.925,12.237,1.438,6.378.944,10.56,1.766,16.837,2.645a.721.721,0,1,0,.2-1.427c-6.237-.875-10.413-1.694-16.826-2.644-3.525-.521-8.8-1.056-12.287-1.447-3.464-.385-11.157-.766-16.224-1.433a.721.721,0,0,0-.189,1.429Z" transform="translate(-393.506 -946.393)" fill="#161d2f"/>
    <path id="Path_62" data-name="Path 62" d="M875.153,1348.988c-4.714,12.434-7.035,31.321-7.688,42.092-.892,14.794-1.367,26.614-1.367,36.22a158.782,158.782,0,0,0,1,19.689.721.721,0,1,0,1.431-.182,157.54,157.54,0,0,1-.988-19.507c0-9.559.471-21.355,1.363-36.133.637-10.662,2.979-29.522,7.6-41.666a.721.721,0,1,0-1.349-.511Z" transform="translate(-496.254 -927.329)" fill="#161d2f"/>
    <path id="Path_63" data-name="Path 63" d="M846.93,1344.111c4.5,4.652,6.456,9.7,9.5,15.237a.722.722,0,0,0,1.264-.7c-2.993-5.41-5.01-10.644-9.728-15.539a.722.722,0,0,0-1.039,1Z" transform="translate(-482.485 -923.324)" fill="#161d2f"/>
    <path id="Path_64" data-name="Path 64" d="M1034.332,1218.746c6.46,1.914,14,4.666,18,6.066a48.323,48.323,0,0,1,10.953,5.075c5.959,3.979,10.165,12.137,10.442,20.17.057,1.609.1,3,.1,4.239a18.229,18.229,0,0,1-.86,6.359c-1,2.808-3.125,5.7-7.484,10.7s-10.9,12.082-20.65,23.32a.722.722,0,1,0,1.091.945c12.984-14.971,20.26-22.535,24.351-27.746a24.2,24.2,0,0,0,4.05-6.731,19.627,19.627,0,0,0,.944-6.844c0-1.273-.045-2.678-.1-4.291-.313-8.485-4.652-16.99-11.079-21.317a49.84,49.84,0,0,0-11.28-5.238c-3.985-1.395-11.544-4.154-18.066-6.086a.721.721,0,1,0-.41,1.382Z" transform="translate(-615.477 -834.072)" fill="#161d2f"/>
    <path id="Path_65" data-name="Path 65" d="M540.347,1037.643c2.268,13.749,17.762,30.876,40.365,52.727l-4.21,4.682c-26.12-10.8-54.36-34.705-62.343-46.255C513.323,1042.844,521.267,1026.861,540.347,1037.643Z" transform="translate(-246.034 -703.746)" fill="#ae5c3d"/>
    <path id="Path_66" data-name="Path 66" d="M812.791,759.738c1.776,4.874,2.3,10.408,2.753,16.341.054.722.08,1.417.08,2.1,0,4.427-1.092,8.095-2.182,12.813-1.075,4.684-2.722,10.981-2.726,16.4q0,.657.034,1.3c.106,1.609,1.009,3.212,1.953,5.181a26.55,26.55,0,0,1,2.488,7,.722.722,0,1,0,1.42-.258,27.946,27.946,0,0,0-2.61-7.376c-.975-1.979-1.769-3.559-1.809-4.627q-.032-.6-.031-1.219c0-5.142,1.6-11.377,2.689-16.081,1.071-4.655,2.217-8.457,2.218-13.136,0-.714-.027-1.446-.085-2.2-.457-5.946-.974-11.6-2.835-16.724a.721.721,0,0,0-1.356.492Z" transform="translate(-456.885 -508.099)" fill="#161d2f" opacity="0.14"/>
    <path id="Path_67" data-name="Path 67" d="M634.4,833.967l-.718-.057c-.034.438-.056,1.279-.121,2.091-.031.4-.075.794-.13,1.1a2.881,2.881,0,0,1-.085.367l-.034.095-.008.017.091.05-.084-.06-.007.01.091.05-.084-.06h0a.953.953,0,0,1-.588.285,6.2,6.2,0,0,1-1.23.095c-.247,0-.49-.005-.719-.005h-.169q-.506.008-1.022.009a54.676,54.676,0,0,1-12.747-1.423l-.174.7.661-.288a10.867,10.867,0,0,1-.747-4.312,45.225,45.225,0,0,1,.638-6.279c.265-1.872.4-3.624.476-5.481l0-.194c0-.408-.036-.923-.036-1.372a2.713,2.713,0,0,1,.064-.726c.128-.321.213-.52.241-.566l0-.008-.348-.218.236.329.112-.111-.348-.218.236.329-.339-.472v.582l.339-.11-.339-.472v.1l-.1.466.1.01v-.477l-.1.466.05-.236-.062.234.012,0,.05-.236-.062.234.071.021a2.44,2.44,0,0,0,.8.129l.178-.005q.435-.024.883-.024c2.6,0,5.5.587,8.227.642h.193c.914,0,1.986-.1,3.031-.1a6.8,6.8,0,0,1,2.793.45,2.273,2.273,0,0,1,.864.672,2.563,2.563,0,0,1,.477,1.185,12.916,12.916,0,0,1,.156,2.069c.007,3.4-1.1,7.177-1.395,10.658v0l.718.057.72.059c.26-3.268,1.392-7.084,1.4-10.775a14.328,14.328,0,0,0-.174-2.3,4.02,4.02,0,0,0-.758-1.835,4.076,4.076,0,0,0-2.209-1.395,9.769,9.769,0,0,0-2.591-.288c-1.129,0-2.223.1-3.031.1l-.167,0c-2.542-.042-5.45-.638-8.253-.642-.323,0-.645.008-.966.026l-.1,0a.991.991,0,0,1-.3-.041,1.477,1.477,0,0,0-.46-.1.879.879,0,0,0-.558.2,1.339,1.339,0,0,0-.333.477c-.071.154-.143.332-.242.577a3.561,3.561,0,0,0-.168,1.265c0,.514.036,1.048.036,1.372l0,.132a53.421,53.421,0,0,1-.463,5.34,46.748,46.748,0,0,0-.653,6.482,12.3,12.3,0,0,0,.867,4.887.72.72,0,0,0,.487.412,56.117,56.117,0,0,0,13.1,1.466q.529,0,1.047-.009h.145c.2,0,.452.006.719.006a7.37,7.37,0,0,0,1.535-.128,2.323,2.323,0,0,0,1.462-.862v0a2.655,2.655,0,0,0,.364-1.05,16.983,16.983,0,0,0,.191-1.874c.036-.619.056-1.189.078-1.453h0Z" transform="translate(-317.854 -549.335)" fill="#161d2f" opacity="0.14"/>
    <path id="Path_68" data-name="Path 68" d="M720.115,597.662a7.843,7.843,0,0,0,5.281-2.612.723.723,0,0,0-1.017-1.029,6.406,6.406,0,0,1-4.334,2.2.723.723,0,1,0,.069,1.445Z" transform="translate(-391.942 -390.837)" fill="#9a4d33"/>
    <path id="Path_69" data-name="Path 69" d="M745.919,1243.554l-4.825-2.266s7.911,6.17,12.042,4.529c0,0,.929-.136.241-1.665,0,0-7.755-3.7-10.788-6.215,0,0,6.977,5.284,12.763,7.147,0,0,2.8-.477,1.019-2.8,2.064.089,1.068-1.734,1.068-1.734a33.5,33.5,0,0,0-4.413-4.362,137.792,137.792,0,0,1-10.091-10.044s6.612-1.12,5.866-4.669l-9.749.717-9.185,1.483-3.071,4.44,5.2,8.442s5.979,6.079,10.024,8.005C742.022,1244.568,753.984,1249.293,745.919,1243.554Z" transform="translate(-397.231 -837.021)" fill="#ae5c3d"/>
    <path id="Path_70" data-name="Path 70" d="M587.554,440.132c2.835-2.051,6.615-.775,9.063-3.137,3.045-2.939,3.547-4.292,8.035-4.837,1.463-.178,5.567,2.152,6.431,1.279,1.309-1.324,2.289-6.288.142-8.813-2.536-2.978-6.671-4.9-10.086-6.136-1.953-.709-3.3-.981-5.29.18-2.395,1.4-2.75,2.086-5.529,1.563-2.2-.415-3.743-.739-5.776.427a10.7,10.7,0,0,1-2.158,1.395c-1.1.313-2.044-.191-3.072.577-1.878,1.4-1.4,4.465-3.413,5.914-.736.53-1.733.383-2.411.8-1.306.81-1.706,2.278-2.235,3.637a6.044,6.044,0,0,1-1.6,2.885c-1.145.961-1.729.56-2.469,2.153-.864,1.861-1.524,5.672-.239,7.224,2.393,2.894,8.557,4.582,12.1,3.339,2.1-.735,2.915-.18,3.618-2.079A14.963,14.963,0,0,1,587.554,440.132Z" transform="translate(-283.089 -265.772)" fill="#2d1807"/>
    <path id="Path_71" data-name="Path 71" d="M847.671,533.022l-8.534,7.876a3.884,3.884,0,0,0,4.424.961l10-8.837S853.494,527.65,847.671,533.022Z" transform="translate(-477.089 -345.927)" fill="#0079a9"/>
    <path id="Path_72" data-name="Path 72" d="M858.893,540.1l-8.534,7.876a3.885,3.885,0,0,0,4.424.961l10-8.837S864.716,534.724,858.893,540.1Z" transform="translate(-485.066 -350.956)" fill="#0079a9"/>
    <path id="Path_73" data-name="Path 73" d="M747.114,566.923s-.383-1.14,1.466-1.424a6.426,6.426,0,0,1,2.858.327l.043.214.044.213a6.439,6.439,0,0,1-2.506,1.412C747.2,568.12,747.114,566.923,747.114,566.923Z" transform="translate(-411.651 -370.681)" fill="#eee1dd"/>
    <path id="Path_74" data-name="Path 74" d="M917.114,531.87s-.089-1.2-1.9-.742a6.435,6.435,0,0,0-2.506,1.413l.043.212.044.214a6.434,6.434,0,0,0,2.858.326C917.5,533.009,917.114,531.87,917.114,531.87Z" transform="translate(-529.384 -346.205)" fill="#eee1dd"/>
    <path id="Path_75" data-name="Path 75" d="M834.555,526.327l11.987-6.457a3.779,3.779,0,0,1,3.79-.532l2.7,1.14a7.991,7.991,0,0,1,2.3,3.316l5.609,12.8-5.266,5.088a31.25,31.25,0,0,1-11.064-4.119l-8.891-8.18s-1.176-3.013,3.131-2.492l5.434,3.3s6.943,3.3,4.6-5.4l-3.607.925-9.423,2.826S834.43,528.545,834.555,526.327Z" transform="translate(-473.826 -337.662)" fill="#3393c4"/>
    <path id="Path_76" data-name="Path 76" d="M875.3,538.856l10.906-2.206-.1-.49L875.3,538.347Z" transform="translate(-502.799 -349.856)" fill="#eee1dd"/>
    <path id="Path_77" data-name="Path 77" d="M917.114,531.87s-.089-1.2-1.9-.742a6.435,6.435,0,0,0-2.506,1.413l.043.212.044.214a6.434,6.434,0,0,0,2.858.326C917.5,533.009,917.114,531.87,917.114,531.87Z" transform="translate(-529.384 -346.205)" fill="#eee1dd"/>
    <path id="Path_78" data-name="Path 78" d="M1079.13,563.349c-10.1-4.545-9.974-11.615-9.974-11.615l33.716-58.582c4.561-12.505,12.989-14.518,12.989-14.518,23.484,2.341,10.109,29.422,10.109,29.422S1094.7,562.256,1079.13,563.349Z" transform="translate(-640.599 -308.962)" fill="#f5a58e"/>
    <path id="Path_79" data-name="Path 79" d="M974.737,603.3s-5.2,10.347-12.8,4.006l-41.6-25.211-3.146,5.67s33.92,40.994,48.926,47.438c0,0,4.959,4.743,13.943-2.852,0,0,10-7.173,12.984-13.783Z" transform="translate(-532.574 -382.508)" fill="#f5a58e"/>
    <path id="Path_80" data-name="Path 80" d="M901.762,514.622s32.269,37.487,48.76,49.093c0,0,7.649,7.231,12.97,2.977,0,0,30.1-21.182,41.1-46.322,0,0,4.117-36.987-13.47-41.738l-27.632,46.831s-3.612,7.626-9.568,4.648l-44.555-22.84S903.342,509.609,901.762,514.622Z" transform="translate(-521.606 -308.962)" fill="#56bddc"/>
    <path id="Path_81" data-name="Path 81" d="M1469.2,1770.523l4.4,31.811-24.97,8.6c-5.9,3.685-6.225,7.091-6.034,8.537h54.763l-3.946-49.571Z" transform="translate(-906.04 -1226.866)" fill="#3393c4"/>
    <path id="Path_82" data-name="Path 82" d="M1161.267,224.552c1.565,10.818,7.886,20.589,18.193,28.015,13.273,9.553,25.327-3.351,30.552-13.208,6.158-11.634,7.668-23.526,2.2-34.528-4.883-9.82-19.405-18.122-34.89-11.76-14.338,5.894-17.506,21.418-16.058,31.48" transform="translate(-705.851 -104.384)" fill="#121738"/>
    <path id="Path_83" data-name="Path 83" d="M1239.931,517.522c-25.094-34.68-25.1-79.548-25.1-79.548,8.719-6.167,12.324-7.525,12.324-7.525l19.517-7.255s18.258,2.618,34.855,6.856l-1.492,77.619-40.1,9.852" transform="translate(-744.151 -269.554)" fill="#f5a58e"/>
    <path id="Path_84" data-name="Path 84" d="M1234.076,369.586l19.759-7.31L1243,332.977l-19.761,7.309,10.842,29.3" transform="translate(-750.127 -205.421)" fill="#f5a58e"/>
    <path id="Path_85" data-name="Path 85" d="M1243.515,352.41c.854-5.829-.308-11.421-2.14-17.367l-18.141,6.711,9.423,25.468c4.849-2.877,9.994-8.917,10.858-14.813" transform="translate(-750.127 -206.89)" fill="#ee7d67"/>
    <path id="Path_86" data-name="Path 86" d="M1365.76,811.96c.647-52.389-30.721-84.789-42.7-91.171-30.9,17.4-50.252,19.272-50.252,19.272,4.632,28.062,6.232,44.338,5.454,64l87.493,7.894" transform="translate(-785.37 -481.1)" fill="#efebed"/>
    <path id="Path_87" data-name="Path 87" d="M1471.764,1100.944l2.46-98.173s-51.347-34.467-48.748,21.377c0,0,.789,18.187,6.957,60.792C1432.434,1084.941,1430.5,1120.191,1471.764,1100.944Z" transform="translate(-893.825 -674.071)" fill="#efebed"/>
    <path id="Path_88" data-name="Path 88" d="M1490.708,1292.148s16.123,58.592,12.674,153.064c-7.265,4.494-27.4,2.7-27.4,2.7-9.039-36.656-16.138-106.013-24.952-157.787C1451.027,1290.13,1468.729,1252.614,1490.708,1292.148Z" transform="translate(-912.055 -874.381)" fill="#efebed"/>
    <path id="Path_89" data-name="Path 89" d="M1269.412,1069.86l30.227-86.413s-37.279-72.106-51.586-18.064c0,0-10.044,42.4-16.967,84.885C1231.086,1050.268,1224.267,1075.813,1269.412,1069.86Z" transform="translate(-755.448 -640.691)" fill="#efebed"/>
    <path id="Path_90" data-name="Path 90" d="M1305.124,292.507c.592,3.831-.936,8.471-4.168,10.542-4.381,2.812-6.775-1.235-7.361-5.433-.469-3.386.207-9.422,3.875-11.158,3.463-1.639,7.175,2.911,7.653,6.048" transform="translate(-800.051 -172.108)" fill="#f5a58e"/>
    <path id="Path_91" data-name="Path 91" d="M1215.437,255.777c-1.427,5.833-3.8,10.787-8.558,14.706-4.656,3.835-9.689,6.168-15.172,2.793a26.242,26.242,0,0,1-9.63-11.587c-4.793-10.466-4.4-25.932,1.318-35.7,6.281-10.724,21.312-10.624,28.5-.632,5.863,8.139,5.849,21.009,3.539,30.421" transform="translate(-718.518 -123.62)" fill="#f5a58e"/>
    <path id="Path_92" data-name="Path 92" d="M1311.008,305.9l.209.689.187-.056.038-.011.038-.016a1.442,1.442,0,0,0,.87-1.324,1.47,1.47,0,0,0-.12-.575v0a10.718,10.718,0,0,1-.927-4.172,3.713,3.713,0,0,1,1.061-3.034l0,0a1.442,1.442,0,0,0,.331-2.019l-.585.421.59-.416a1.441,1.441,0,0,0-2.019-.333,6.43,6.43,0,0,0-2.275,5.388,13.486,13.486,0,0,0,1.18,5.313h0a1.445,1.445,0,0,0,1.327.87l.2-.014.056-.008.053-.017-.209-.689-.1-.715h-.006a12.085,12.085,0,0,1-1.061-4.738,5.032,5.032,0,0,1,1.675-4.217v-.008l0,0,0,0v-.006l0,0v.005h0l-.005,0,0,0a5.04,5.04,0,0,0-1.661,4.2,12.128,12.128,0,0,0,1.047,4.747v0h0l.286.663-.208-.691-.188.056.208.691-.1-.715.1.715" transform="translate(-810.669 -178.27)" fill="#ee7d67"/>
    <path id="Path_93" data-name="Path 93" d="M1315.95,308.885a.724.724,0,0,0,.092-1.415c-.671-.176-2.948-.684-4.3.452a.723.723,0,0,0,.927,1.109c.609-.509,1.981-.443,2.994-.164l.291.018" transform="translate(-812.856 -187.1)" fill="#ee7d67"/>
    <path id="Path_94" data-name="Path 94" d="M1224.483,233.449c.894.723,3.227-1.825,3.546-3.565h0a3.944,3.944,0,0,1,3.312-4.272c1.654-.3,3.607,2,4.32,3.61-.138-1.781-.537-4.317-.777-6.2a42.9,42.9,0,0,0-1.089-5.5c-1.115-4.2-1.783-6.5-4.385-10.218-2.8-4-6.7-6.868-11.726-7.4-6.073-.647-15.816-.5-20.285,3.806-2.294,2.2-.1,2.373,1.414,10.364,0,0,22.188-8.781,25.669,19.383" transform="translate(-731.056 -110.618)" fill="#121738"/>
    <path id="Path_95" data-name="Path 95" d="M1201.595,311.575c.1,1.223-.41,2.265-1.149,2.322s-1.411-.883-1.51-2.106.416-2.267,1.154-2.324,1.407.882,1.5,2.109" transform="translate(-732.846 -188.707)" fill="#161d2f"/>
    <path id="Path_96" data-name="Path 96" d="M1256.178,303.709c.1,1.224-.416,2.267-1.15,2.324s-1.412-.886-1.508-2.11.41-2.266,1.149-2.321,1.412.882,1.509,2.107" transform="translate(-771.647 -183.116)" fill="#161d2f"/>
    <path id="Path_97" data-name="Path 97" d="M1256.063,326.429c.073.871-1.467,1.709-3.438,1.863s-3.624-.418-3.692-1.286,1.469-1.7,3.436-1.862,3.625.417,3.695,1.285" transform="translate(-768.393 -199.835)" fill="#ee7d67"/>
    <path id="Path_98" data-name="Path 98" d="M1195.794,335.108c.073.873-1.466,1.707-3.437,1.865s-3.624-.418-3.694-1.29,1.472-1.7,3.439-1.861,3.623.417,3.692,1.286" transform="translate(-725.55 -206.002)" fill="#ee7d67"/>
    <path id="Path_99" data-name="Path 99" d="M1170.57,232.294c-4.125-6.771-6.98-18.834,5.674-25.555,3.1-1.647,10.992-3.55,14.062-1.013,6.8,5.617-6.037,10.07-9.52,10.931-5.549,1.373-9.157,3.465-10.216,15.637" transform="translate(-710.202 -114.087)" fill="#121738"/>
    <path id="Path_100" data-name="Path 100" d="M1263.714,427.848s-18.515,29.643,13.137,35.34c-.1,2.985.416,47.61-1.633,50.253-6.078,7.843-48.412,26.1-53.987,15.258-18.195-35.349-19.482-37.242-19.881-51.631-.442-23.04,2.281-33.053,2.281-33.053l1.581-5.469,10.687-6.536s2.067,11.968,11.835,9.01c0,0,15.878-4.34,10.886-17.02l25.094,3.848" transform="translate(-734.536 -270.126)" fill="#efebed"/>
    <path id="Path_101" data-name="Path 101" d="M1424.248,458.189l31.228,55.5a17.066,17.066,0,0,1-6.325,11.868s-5.291,6.694-15.094-8.529l-38.814-53.837s-8.253-14.567,9.193-16.977C1404.436,446.214,1417.069,444.588,1424.248,458.189Z" transform="translate(-871.014 -285.874)" fill="#f5a58e"/>
    <path id="Path_102" data-name="Path 102" d="M1409.713,938.975c-.046.865-.068,1.822-.068,2.856,0,12.167,2.991,35.343,3.908,45.236,1.825,19.571,6.98,59.6,8.852,73.409a.722.722,0,1,0,1.43-.194c-1.87-13.785-7.025-53.831-8.845-73.348-.924-9.929-3.9-33.118-3.9-45.1,0-1.014.019-1.946.064-2.78a.72.72,0,1,0-1.439-.077Z" transform="translate(-882.638 -635.714)" fill="#161d2f"/>
    <path id="Path_103" data-name="Path 103" d="M1248.873,286.186c.309-.014.589-.026.836-.026a3.376,3.376,0,0,1,1.33.21,4.244,4.244,0,0,1,1.421,1.044,1.082,1.082,0,1,0,1.546-1.513,6.354,6.354,0,0,0-2.156-1.536,5.521,5.521,0,0,0-2.141-.368c-.312,0-.624.014-.942.028a1.082,1.082,0,1,0,.106,2.162" transform="translate(-767.545 -170.603)" fill="#121738"/>
    <path id="Path_104" data-name="Path 104" d="M1187.2,296.194a2.449,2.449,0,0,1,1.028-1,3.09,3.09,0,0,1,1.4-.4l.182.01a1.082,1.082,0,1,0,.268-2.147,3.7,3.7,0,0,0-.45-.027,5.175,5.175,0,0,0-2.453.678,4.592,4.592,0,0,0-1.924,1.944,1.083,1.083,0,0,0,1.947.948" transform="translate(-723.052 -176.737)" fill="#121738"/>
    <path id="Path_105" data-name="Path 105" d="M1216.6,305.9a5.181,5.181,0,0,1,1.907,2.265,9.534,9.534,0,0,1,.8,3.013c.018.185.03.366.03.544a9.622,9.622,0,0,1-.448,2.545,10.71,10.71,0,0,0-.494,2.841v.165a.684.684,0,0,0,.542.649,4.2,4.2,0,0,0,.879.085,19.755,19.755,0,0,0,2.751-.357.684.684,0,0,0-.2-1.354,19.619,19.619,0,0,1-2.556.344,2.938,2.938,0,0,1-.594-.055l-.143.668.684-.019v-.127a9.345,9.345,0,0,1,.446-2.482,10.848,10.848,0,0,0,.495-2.9,6.214,6.214,0,0,0-.037-.689,10.85,10.85,0,0,0-.918-3.449,6.56,6.56,0,0,0-2.42-2.844.684.684,0,0,0-.726,1.16" transform="translate(-745.18 -185.278)" fill="#ee7d67"/>
    <path id="Path_106" data-name="Path 106" d="M1222.914,365.222a5.6,5.6,0,0,0,2.379.531,4.936,4.936,0,0,0,3.812-1.673l-1.111-.921a3.513,3.513,0,0,1-2.7,1.152,4.154,4.154,0,0,1-1.766-.394l-.613,1.3" transform="translate(-749.899 -226.877)" fill="#ee7d67"/>
    <path id="Path_107" data-name="Path 107" d="M1182.693,1766.691l.846,31.812-24.969,8.6c-5.9,3.684-6.225,7.09-6.033,8.536h58.145l-1.539-48.927Z" transform="translate(-699.844 -1224.587)" fill="#3393c4"/>
    <path id="Path_108" data-name="Path 108" d="M1270.427,1310.843s12.1,55.261-1.419,145.476c-7.8,3.471-32.525-.006-32.525-.006-6.227-58.326-4.645-126.9-5.682-158.143C1230.8,1298.171,1253.989,1268.7,1270.427,1310.843Z" transform="translate(-755.506 -884.413)" fill="#efebed"/>
    <path id="Path_109" data-name="Path 109" d="M1182.223,332.71s6.543,1.5,10.53-1.6c0,0,2.182-3.7,6.871-1.6a9.977,9.977,0,0,0,9.021,1.463,8.614,8.614,0,0,0,4.4-3.205,27.208,27.208,0,0,1,2.844,12.108s-6.882,16.675-19.148,12.68c0,0-11.418-2.4-14.521-19.84" transform="translate(-720.974 -201.714)" fill="#77c7df"/>
    <path id="Path_110" data-name="Path 110" d="M1288.832,313.15l4.622-5.943-3.684,8.049-.937-2.105" transform="translate(-796.758 -187.103)" fill="#77c7df"/>
    <path id="Path_111" data-name="Path 111" d="M1296.828,351.887l2.653-4.727-2.121,6.5-.532-1.772" transform="translate(-802.442 -215.504)" fill="#77c7df"/>
    <path id="Path_112" data-name="Path 112" d="M1197.407,576.33c3.8,12.147,8.375,21.016,9.2,33.9.788,12.343,1.4,23.554,3.628,35.342s.028,23.55-2.2,35.341c-.69,3.639-3.655,36.1-2.738,24.228,5.665.359,13.216-12.378,18.621-13.411,4.836-.926,9.989-.394,13.868-2.722,11.127-6.68,6.838-23.947,6.331-34.584-1.555-32.612-4.781-66.938-14.605-98.289-2.829-9.028-7.742-20.848-14.061-28.162-7.4-8.571-20.078-29.706-23.4-18.767-10.11,33.3,1.339,54.273,5.362,67.124" transform="translate(-725.067 -328.511)" fill="#efebed"/>
    <path id="Path_113" data-name="Path 113" d="M1392.2,500.238c3.8,10.722,8.5,20.535,13.565,30.961,5,10.307,8.764,20.124,10.941,31.031,2.493,12.482,2.882,24.568,4.527,37.506,1.6,12.632-3.4,24.26-3.892,36.659-11.152,7.048-24.411-15.547-27.462-23.7-6.233-16.652-6.285-34.35-13.348-50.468-8.047-18.37-11.463-37.865-16.227-57.16-3.795-15.372-8.866-36.968-5.456-52.292,1.541-6.924,2.645-20.833,8.313-20.238l11.281,1.245S1371.5,441.854,1392.2,500.238Z" transform="translate(-842.884 -276.184)" fill="#efebed"/>
    <path id="Path_114" data-name="Path 114" d="M1177.9,298.042l.186-.311a12.384,12.384,0,0,0-5.93-1.266,22.512,22.512,0,0,0-9.738,2.436l-.046.026a3.831,3.831,0,0,0-.8.775,3.562,3.562,0,0,0-.793,2.208,3.442,3.442,0,0,0,.088.79,14.924,14.924,0,0,0,2.114,5.177,6.08,6.08,0,0,0,4.128,2.8,12.268,12.268,0,0,0,1.677.108c3.064-.008,6.7-.955,8.713-2.9a6.078,6.078,0,0,0,1.563-4.5,24.711,24.711,0,0,0-.815-5.414l-.166-.228-.186.311-.351.08a24.114,24.114,0,0,1,.8,5.252,5.364,5.364,0,0,1-1.345,3.988c-1.767,1.741-5.294,2.708-8.209,2.7a11.525,11.525,0,0,1-1.58-.1,5.355,5.355,0,0,1-3.633-2.493,14.226,14.226,0,0,1-2-4.922,2.769,2.769,0,0,1,.566-2.4,3.449,3.449,0,0,1,.447-.471l.143-.119.045-.033-.2-.3.157.325a21.789,21.789,0,0,1,9.426-2.364,13.968,13.968,0,0,1,4.15.591,8.916,8.916,0,0,1,1.066.4l.266.128.079.044.183-.311-.351.08.351-.08" transform="translate(-705.734 -179.467)" fill="#161d2f"/>
    <path id="Path_115" data-name="Path 115" d="M1233.761,288.87l.273.236.03-.034c.364-.385,3.742-3.809,11.235-3.811a26.89,26.89,0,0,1,3.325.212l.042-.359-.1.348.069.023a3.456,3.456,0,0,1,1.1.642,2.737,2.737,0,0,1,.934,1.815,18.516,18.516,0,0,1,.1,1.888,11.4,11.4,0,0,1-.7,4.2,5,5,0,0,1-2.379,2.732,14.925,14.925,0,0,1-6.274,1.389,9.007,9.007,0,0,1-3.83-.736,5.557,5.557,0,0,1-2.63-3.611,25.386,25.386,0,0,1-.833-4.971l-.359.033.273.236-.273-.236-.359.036a26.161,26.161,0,0,0,.863,5.114,6.254,6.254,0,0,0,3.006,4.049,9.718,9.718,0,0,0,4.143.806,15.618,15.618,0,0,0,6.6-1.464,5.726,5.726,0,0,0,2.724-3.107,12.062,12.062,0,0,0,.758-4.474,19.024,19.024,0,0,0-.106-1.964,3.475,3.475,0,0,0-1.407-2.469,4,4,0,0,0-1.215-.631l-.052-.01a28.037,28.037,0,0,0-3.412-.217c-8.24,0-11.772,4.045-11.811,4.1l-.087.271.359-.036" transform="translate(-757.355 -170.989)" fill="#161d2f"/>
    <path id="Path_116" data-name="Path 116" d="M1224.847,301.1a17.542,17.542,0,0,1-.463-2.966c-2.08,2.32-4.15.787-4.15.787a7.614,7.614,0,0,1,.348,2.876,4.114,4.114,0,0,1,4.265-.7" transform="translate(-747.994 -180.652)" fill="#161d2f"/>
    <path id="Path_117" data-name="Path 117" d="M1291.9,290.316l6.2,1.072a3.211,3.211,0,0,0-.821,1.671l-4.581.089s.14-2.053-.8-2.832" transform="translate(-798.94 -175.096)" fill="#161d2f"/>
    <path id="Path_118" data-name="Path 118" d="M1290.68,666.848c-.9-12.281.49-36.27,0-48.762-.594-15.1-1.968-25.707-1.968-41.031,0-7.763.418-13.769,0-21.516,0-21.515-7.475-41.077-7.475-41.077a139.544,139.544,0,0,1-9.36-15.834c-3.339-6.285-3.773-10.475-4.487-17.344-.6-5.789-3.515-11.62-5.084-17.294-3.967-14.365,2-34.981-22.713-39.509-2.785-.512-14.793-.178-14.793-.178,2.245,4.345,2.245,11.739-2.6,16.566-3.387,3.372-10.546,5.373-14.871,5.63-5.936.354-12.008-5.9-11.361-12.691-13.3,2.57-9.89,12.87-18.18,40.478-2.2,7.335,1.19,17.963,3.72,25.614,1.868,5.646,6.3,23.87,8.782,29.311,2.524,5.533,2.538,14.645,4.312,20.321,9.583,30.668,3.277,37.363,1.366,69.528-1.629,27.434.625,41.906-4.318,68.443-.926,4.98-.573,24.848-.01,30.371,0,0,53.748,13.782,99.041-5.135V666.848" transform="translate(-717.316 -270.265)" fill="#77c7df"/>
    <path id="Path_119" data-name="Path 119" d="M1420.876,702.954c21.342-11.642,20.237-13.471,26.363-22.767,7.22-10.966-20.819-7.834-20.819-7.834-1.651,14.6-42.025,39.683-42.025,39.683s-1.463,5.253,1.75,7.975C1386.144,720.011,1410.813,708.445,1420.876,702.954Z" transform="translate(-864.452 -446.375)" fill="#f5a58e"/>
    <path id="Path_120" data-name="Path 120" d="M1390.423,426.026s-12.027,10.365,6.863,41.337l24.985,33.7s23.031,1.624,28.484-10.023l-30.175-49.649S1410.864,423.78,1390.423,426.026Z" transform="translate(-866.292 -271.425)" fill="#56bddc" stroke="#707070" stroke-width="0.01"/>
    <path id="Path_121" data-name="Path 121" d="M1208.31,213.776a3.664,3.664,0,0,1,.146-2.642,4.755,4.755,0,0,0,.167-2.171c.132-2.715-2.387-4.291-2.5-6.985-.127-3.116,1.719-4.386-1.073-7.124-1.076-1.056-1.694-.787-2.535-2.217-.866-1.474-.25-2.647-2.065-3.724-1.122-.663-2.1-.165-3.236-1.073-1-.8-1.285-2.843-2.242-3.894-2.161-2.374-4.123-1.057-6.492-2.138-1.28-.583-1.725-1.788-3.247-1.828a5.236,5.236,0,0,0-2.332.605,5.092,5.092,0,0,1-2.742.579c-1.392-.149-2.495-1.134-3.949-.827s-2.177,1.512-3.609,1.821c-1.4.3-2.614-.052-3.958.443-1.5.552-2.313,1.8-3.606,2.533-2.555,1.456-5.091-.21-7.318,3.806-1.1,1.991-4.328,2.906-5.411,4.4-1.448,2-1.624,4.771-3.056,6.922-3.918,5.877-2.324,13.273-.83,19.423.677,2.783,2.808,5.892,4.257,7.975,1.1,1.578,3.224,6.239,5.5,6.071l-.359-.361c.148-2.087-1.489-5.638-2.234-7.5-.391-.974-1.321-1.942-1.652-3.034-.421-1.389-.062-2.847-.422-4.267-.294-1.148-1.526-1.9-1.742-3.228-.259-1.594.69-2.985.922-4.407.5-3.056-.3-4.851.89-7.765.426-1.044.551-2.32.992-3.336.831-1.91.713-1.2,2.164-2.525.763-.695,1.686-2.089,2.429-2.623a3.01,3.01,0,0,1,2.5-.523,4.238,4.238,0,0,0,1.346.018c1.773-.325,2.151-1.18,3.807-1.918,1.925-.858,1.98-.079,3.617.007a10.893,10.893,0,0,0,3.737-.71,9.517,9.517,0,0,1,4.125-.67c3.462.5,6.288,5.819,7.652,8.585.911,1.843,1.066,3.588,2.085,5.41a21.877,21.877,0,0,1,2.234,6.14c.925,3.943,1.05,7.592,1.533,11.81.2,1.763,1.453,4.278.877,5.951-.86,2.5-1.111,3.077-.9,5.247a21.85,21.85,0,0,0,2.606,5.705.5.5,0,0,0,.519.211l.017.015c1.488.622,4.56-1.828,5.429-3.37a8.934,8.934,0,0,0,.873-2.859c.142-1-.147-1.68.51-2.492.716-.892,1.811-1.12,2.525-2.053a7.317,7.317,0,0,0,1.175-2.31c.569-1.795-.445-4,.262-5.738.661-1.622,2.7-2.541,2.982-4.355a6.585,6.585,0,0,0-.361-3.009" transform="translate(-695.793 -96.662)" fill="#83accc"/>
    <path id="Path_122" data-name="Path 122" d="M1283.248,216.6a52.333,52.333,0,0,0,14.005-6.781.721.721,0,0,0-.853-1.164,44.456,44.456,0,0,1-8.967,4.883c-1.336.555-2.489.977-3.306,1.257-.408.143-.733.247-.954.319l-.336.1a.722.722,0,0,0,.41,1.384" transform="translate(-792.13 -116.945)" fill="#161d2f"/>
    <g id="Group_2" data-name="Group 2" transform="translate(455.931 109.566)">
      <g id="Group_1" data-name="Group 1" clip-path="url(#clip-path)">
        <rect id="Rectangle_7" data-name="Rectangle 7" width="4.533" height="10.119" transform="translate(-0.214 0)" fill="#35416b"/>
      </g>
    </g>
    <path id="Path_124" data-name="Path 124" d="M1194.955,245.184c-3.259.653-6.677,1.358-9.954,2.071-3.011,1.833-5,5.362-5.759,13.726a22.856,22.856,0,0,1,2.722-.667,5.237,5.237,0,0,1,1.018-.735,5.175,5.175,0,0,1,2.453-.678,3.693,3.693,0,0,1,.45.027,1.082,1.082,0,0,1,.945,1.155,11.3,11.3,0,0,1,4.379,1.194l-.036.056h0l.036-.056.095.132a3.032,3.032,0,0,0,1.422.368,3.184,3.184,0,0,0,2.217-.974l.046-.146a11.564,11.564,0,0,1,4.156-2.691,1.1,1.1,0,0,1-.1-.4,1.083,1.083,0,0,1,1.028-1.133c.318-.015.63-.028.942-.028h.019a5.479,5.479,0,0,1,2.122.368c.044.017.085.034.125.053a22.72,22.72,0,0,1,3.515-.264,28,28,0,0,1,3.319.206c-3.516-9.02-9.925-11.368-15.164-11.585" transform="translate(-718.855 -143.013)" fill="#fbcebf"/>
    <path id="Path_125" data-name="Path 125" d="M1246.007,236.9c-3.124.582-7.6,1.43-12.421,2.4,5.24.217,11.648,2.565,15.164,11.585l.093.011.052.01a4,4,0,0,1,1.215.631,3.636,3.636,0,0,1,.856.9l1.245.216c-.077-.386-.162-.774-.252-1.166a21.877,21.877,0,0,0-2.234-6.14c-1.019-1.822-1.175-3.567-2.085-5.41-.417-.844-.969-1.926-1.633-3.035" transform="translate(-757.486 -137.123)" fill="#35416b"/>
    <path id="Path_126" data-name="Path 126" d="M1176.937,252.348c-2.929.638-5.744,1.282-8.225,1.9-.042.123-.087.245-.134.363a9.116,9.116,0,0,0-.68,3.062,24.406,24.406,0,0,0,3.142,8.445l.138-.043c.761-8.365,2.748-11.893,5.759-13.726" transform="translate(-710.791 -148.106)" fill="#35416b"/>
    <path id="Path_127" data-name="Path 127" d="M1249.728,284h-.019c-.312,0-.624.014-.942.028a1.083,1.083,0,0,0-1.028,1.133,1.1,1.1,0,0,0,.1.4,18.15,18.15,0,0,1,4.14-1.14c-.041-.019-.082-.036-.125-.053a5.479,5.479,0,0,0-2.122-.368" transform="translate(-767.545 -170.603)" fill="#35416b"/>
    <path id="Path_128" data-name="Path 128" d="M1192.127,292.625a5.175,5.175,0,0,0-2.453.678,5.24,5.24,0,0,0-1.018.735,18.845,18.845,0,0,1,3.315-.3c.553,0,1.071.027,1.551.072a1.082,1.082,0,0,0-.945-1.155,3.7,3.7,0,0,0-.45-.027" transform="translate(-725.547 -176.737)" fill="#35416b"/>
    <path id="Path_129" data-name="Path 129" d="M1199.857,310.089c.03.366.047.732.047,1.1a6.078,6.078,0,0,1-1.563,4.5,8,8,0,0,1-1.67,1.214,4.57,4.57,0,0,1-3.294,1.344c-.2.016-.4.024-.589.025a16.627,16.627,0,0,1-2.693.312c.426.032.895.053,1.391.053a11.222,11.222,0,0,0,6.863-1.966,5.075,5.075,0,0,1,2.276-1.885,6.259,6.259,0,0,0,.1-1.06c0-.178-.011-.359-.03-.544a9.534,9.534,0,0,0-.8-3.013c-.011-.027-.024-.053-.036-.079m1.933-2.636a4.1,4.1,0,0,0-1.783.393,7.3,7.3,0,0,1,1.125,1.742,10.854,10.854,0,0,1,.918,3.449,6.242,6.242,0,0,1,.037.689c0,.245-.014.483-.037.715.139-.011.279-.017.426-.017a6.7,6.7,0,0,1,2.745.644,10.025,10.025,0,0,0,5.929,1.964,9.887,9.887,0,0,0,3.092-.5,8.613,8.613,0,0,0,4.4-3.205h0l2.76-3.551a1.866,1.866,0,0,1-1.032.461.609.609,0,0,1-.268-.058c-.047.141-.1.279-.155.416a5.726,5.726,0,0,1-2.724,3.107,14.366,14.366,0,0,1-3.618,1.173,5.865,5.865,0,0,1-2.807.861c-.222.019-.442.028-.656.028-1.533,0-2.763-.459-3-1.132a6.832,6.832,0,0,1-.661-.273,6.253,6.253,0,0,1-3.007-4.049,18.071,18.071,0,0,1-.588-2.73,5.077,5.077,0,0,0-1.1-.125" transform="translate(-726.569 -187.278)" fill="#fbcebf"/>
    <path id="Path_130" data-name="Path 130" d="M1295.494,300.016l-1.026.02c.011.265.018.531.018.8a12.555,12.555,0,0,1-.6,4.058.609.609,0,0,0,.268.058,1.867,1.867,0,0,0,1.032-.461l.715-.917c-.115-1.2-.24-2.376-.4-3.554" transform="translate(-800.348 -181.991)" fill="#35416b"/>
    <path id="Path_131" data-name="Path 131" d="M1249.07,332.277c.235.672,1.465,1.132,3,1.132.215,0,.434-.009.656-.028a5.865,5.865,0,0,0,2.807-.861,16.1,16.1,0,0,1-2.978.29,10.509,10.509,0,0,1-3.482-.533" transform="translate(-768.493 -204.924)" fill="#f7b3a2"/>
    <path id="Path_132" data-name="Path 132" d="M1203.289,340.137a13.537,13.537,0,0,1-3.883,1.369c.192,0,.39-.009.59-.025a4.57,4.57,0,0,0,3.294-1.344" transform="translate(-733.189 -210.511)" fill="#f7b3a2"/>
    <path id="Path_133" data-name="Path 133" d="M1223.336,308.813a3.4,3.4,0,0,0-.422.237c.117.653.217,1.328.273,2.006.012.026.025.052.036.079a9.534,9.534,0,0,1,.8,3.013c.018.185.03.366.03.544a6.259,6.259,0,0,1-.1,1.06,4.732,4.732,0,0,1,1.425-.345c.023-.232.037-.47.037-.715a6.244,6.244,0,0,0-.037-.689,10.854,10.854,0,0,0-.918-3.449,7.3,7.3,0,0,0-1.125-1.742" transform="translate(-749.899 -188.244)" fill="#f7b3a2"/>
    <path id="Path_134" data-name="Path 134" d="M1294.686,315.258l-2.619,5.721,0-.006a27.854,27.854,0,0,1,1.83,7.43l2.137-3.806c.32-1.658-.781-3.958-.969-5.6-.147-1.291-.262-2.529-.375-3.737" transform="translate(-799.054 -192.826)" fill="#fbcebf"/>
    <path id="Path_135" data-name="Path 135" d="M1216.908,356.26a5.446,5.446,0,0,1-.258.535c-.773,1.374-3.3,3.47-4.892,3.47a1.367,1.367,0,0,1-.537-.1l-.017-.015a.717.717,0,0,1-.109.009.477.477,0,0,1-.368-.167l2.026,5.476a9.694,9.694,0,0,0,4.155-9.209M1174.13,353.5c0,.027,0,.053,0,.08l.207.209-.2-.289m-4.391-4.417a242.667,242.667,0,0,0,6.552,25.391s.843.07,2.357.07a69.442,69.442,0,0,0,14.4-1.626l-1.7-4.595a11.867,11.867,0,0,1-2.861-.431c-.268-.064-.535-.141-.807-.232-1.243-.337-8.182-2.61-12.207-12.345q-.529-.679-1.023-1.37l-.08,0c-1.785,0-3.472-2.912-4.626-4.863" transform="translate(-712.099 -216.867)" fill="#c9e8f5"/>
    <path id="Path_136" data-name="Path 136" d="M1215.153,349.5c-.017.049-.034.1-.049.145l.034.094c0-.081.008-.16.015-.238m-35.4-4.546c.741,1.828,1.57,4.086,1.5,5.611l.2.289.152.153-.039,0q.494.691,1.023,1.37a35.716,35.716,0,0,1-2.084-7.249,5.285,5.285,0,0,1-.75-.176" transform="translate(-719.219 -213.932)" fill="#35416b"/>
    <path id="Path_137" data-name="Path 137" d="M1287.139,361.172c-.316.908-.665,1.792-1.054,2.65-.165.37-.557,1.222-1.17,2.323a27.827,27.827,0,0,1-.273,4.839,18.676,18.676,0,0,1-3.552,8.026,73.831,73.831,0,0,0,8.786-3.713,14.531,14.531,0,0,0,2.032-1.23l-2.026-5.476c-.012-.016-.028-.034-.042-.053a21.85,21.85,0,0,1-2.606-5.705,10.974,10.974,0,0,1-.061-1.567l-.034-.094" transform="translate(-791.254 -225.464)" fill="#fbcebf"/>
    <path id="Path_138" data-name="Path 138" d="M1258.875,378.371c-2.148,3.857-6.995,10.773-14.142,10.773-.091,0-.183,0-.276,0l1.7,4.595a75.167,75.167,0,0,0,8.892-2.5,18.676,18.676,0,0,0,3.552-8.026,27.827,27.827,0,0,0,.273-4.839" transform="translate(-765.213 -237.69)" fill="#f7b3a2"/>
    <path id="Path_139" data-name="Path 139" d="M1231.773,373.191c.271.091.539.167.807.232-.2-.055-.406-.116-.612-.183,0,0-.067-.014-.194-.049m20.549-16.324-1.206,3.692h0s-.03.07-.087.2c.389-.857.738-1.742,1.054-2.65.015-.049.031-.1.049-.145a6.308,6.308,0,0,1,.191-1.1" transform="translate(-756.197 -222.404)" fill="#fbcebf"/>
    <path id="Path_140" data-name="Path 140" d="M1213.137,327.762a8.614,8.614,0,0,1-4.4,3.205,9.888,9.888,0,0,1-3.092.5,10.025,10.025,0,0,1-5.929-1.964,6.7,6.7,0,0,0-2.745-.644c-.147,0-.287.005-.426.017a4.732,4.732,0,0,0-1.425.345,5.075,5.075,0,0,0-2.276,1.885,11.222,11.222,0,0,1-6.863,1.966c-.5,0-.966-.021-1.391-.053-.156.006-.313.009-.467.009a12.267,12.267,0,0,1-1.677-.108l-.1-.013a35.716,35.716,0,0,0,2.084,7.249c4.026,9.735,10.964,12.008,12.207,12.345.128.035.194.049.194.049.207.067.409.128.612.183a11.865,11.865,0,0,0,2.861.431c.093,0,.184,0,.276,0,7.147,0,11.994-6.916,14.142-10.773.613-1.1,1.005-1.953,1.17-2.323.057-.132.087-.2.087-.2h0l-.532-1.772.452-.806a27.854,27.854,0,0,0-1.83-7.43l-.934-2.1h0" transform="translate(-721.063 -201.714)" fill="#b4dfef"/>
    <path id="Path_141" data-name="Path 141" d="M1292.308,312.309l-.715.917-2.76,3.551.934,2.1,0,.006,2.619-5.721c-.028-.286-.056-.57-.081-.853" transform="translate(-796.758 -190.729)" fill="#b4dfef"/>
    <path id="Path_142" data-name="Path 142" d="M1299.417,347.555l-2.137,3.806-.452.806.532,1.772,1.206-3.692c.157-.619.406-1.32.759-2.342a2.524,2.524,0,0,0,.091-.35" transform="translate(-802.442 -215.784)" fill="#b4dfef"/>
    <path id="Path_143" data-name="Path 143" d="M1170.289,302.5a26.915,26.915,0,0,0-3.3,1.326l-.028.021-.143.119c-.028.024-.059.051-.089.08a4.925,4.925,0,0,1,.95,1.615c.36,1.42,0,2.878.422,4.267.332,1.092,1.262,2.06,1.653,3.034.1.265.229.564.363.887a4.346,4.346,0,0,0,.97.337,45.615,45.615,0,0,1-.793-11.685" transform="translate(-709.956 -183.757)" fill="#73789d"/>
    <path id="Path_144" data-name="Path 144" d="M1186.053,306.547c-.708,0-1.347-.923-1.443-2.109-.1-1.227.416-2.267,1.154-2.324a.634.634,0,0,1,.068,0c.706,0,1.342.922,1.437,2.111.1,1.223-.41,2.265-1.149,2.322a.655.655,0,0,1-.067,0m.115-7.426a1.085,1.085,0,0,1-.751.305,1.138,1.138,0,0,1-.136-.009l-.182-.01h-.014a3.105,3.105,0,0,0-1.388.4,2.449,2.449,0,0,0-1.028,1,1.083,1.083,0,0,1-1.947-.948c.056-.113.118-.222.181-.327-.654.146-1.337.33-2.051.561a45.62,45.62,0,0,0,.793,11.685c.115.026.234.047.353.063a11.525,11.525,0,0,0,1.58.1h.033c.267,0,.541-.009.817-.025-.473-.228-.766-.534-.8-.891-.071-.87,1.472-1.7,3.439-1.861.222-.019.44-.027.651-.027,1.419,0,2.575.39,2.93.979a6.542,6.542,0,0,0,1.134-.875,5.364,5.364,0,0,0,1.345-3.988,15.435,15.435,0,0,0-.221-2.454,4.481,4.481,0,0,0-.975-.827.685.685,0,0,1,.364-1.265.674.674,0,0,1,.205.033c-.044-.2-.089-.39-.131-.577l-.215-.1a8.911,8.911,0,0,0-1.066-.4,13.293,13.293,0,0,0-2.926-.544" transform="translate(-718.519 -181.355)" fill="#fcded3"/>
    <path id="Path_145" data-name="Path 145" d="M1200.158,309.465a.625.625,0,0,0-.068,0c-.739.058-1.251,1.1-1.154,2.324.1,1.186.735,2.109,1.443,2.109a.655.655,0,0,0,.067,0c.739-.058,1.25-1.1,1.149-2.322-.095-1.19-.731-2.111-1.437-2.111" transform="translate(-732.846 -188.708)" fill="#7f879d"/>
    <path id="Path_146" data-name="Path 146" d="M1192.753,333.793c-.211,0-.429.008-.651.027-1.968.158-3.51.991-3.439,1.861.03.357.322.663.8.891a13.9,13.9,0,0,0,6.226-1.8c-.354-.59-1.511-.979-2.93-.979" transform="translate(-725.55 -206.002)" fill="#fbcfc1"/>
    <path id="Path_147" data-name="Path 147" d="M1189.477,298.961a18.578,18.578,0,0,0-4.04.462c-.063.1-.125.215-.181.327a1.083,1.083,0,0,0,1.947.948,2.449,2.449,0,0,1,1.028-1,3.105,3.105,0,0,1,1.388-.4h.014l.182.01a1.138,1.138,0,0,0,.136.009,1.085,1.085,0,0,0,.751-.305c-.385-.029-.793-.046-1.224-.046" transform="translate(-723.052 -181.241)" fill="#73789d"/>
    <path id="Path_148" data-name="Path 148" d="M1216.961,304.637a.685.685,0,0,0-.364,1.265,4.481,4.481,0,0,1,.975.827c-.114-.71-.259-1.406-.406-2.059a.674.674,0,0,0-.205-.033" transform="translate(-745.18 -185.276)" fill="#fbcfc1"/>
    <path id="Path_149" data-name="Path 149" d="M1242.468,295.682c-.708,0-1.346-.925-1.44-2.112-.1-1.225.41-2.266,1.148-2.321.023,0,.045,0,.068,0,.709,0,1.346.924,1.441,2.11.1,1.224-.415,2.267-1.15,2.324l-.068,0m4.632-8.647a22.682,22.682,0,0,0-2.5.134,8.115,8.115,0,0,1,1.012.891,1.082,1.082,0,1,1-1.546,1.513,4.243,4.243,0,0,0-1.421-1.044,3.376,3.376,0,0,0-1.33-.21c-.248,0-.526.012-.836.026h-.055a1.057,1.057,0,0,1-.411-.081,11.839,11.839,0,0,0-4.082,2.507,24.806,24.806,0,0,0,.82,4.808,5.557,5.557,0,0,0,2.63,3.611c.15.073.307.14.469.2a4.637,4.637,0,0,1,3.277-1.321c.22-.017.437-.026.647-.026,1.675,0,2.986.54,3.047,1.311,0,.043,0,.085,0,.127a12.951,12.951,0,0,0,2.664-.944,5,5,0,0,0,2.378-2.732,8.956,8.956,0,0,0,.5-1.766,37.191,37.191,0,0,0-1.625-6.658,3.033,3.033,0,0,0-.3-.124l-.049-.016a26.954,26.954,0,0,0-3.291-.208" transform="translate(-759.155 -172.763)" fill="#fcded3"/>
    <path id="Path_150" data-name="Path 150" d="M1287.141,288.238a37.191,37.191,0,0,1,1.625,6.658,13.689,13.689,0,0,0,.206-2.436,18.515,18.515,0,0,0-.1-1.888,2.738,2.738,0,0,0-.934-1.815,3.507,3.507,0,0,0-.8-.518" transform="translate(-795.556 -173.618)" fill="#73789d"/>
    <path id="Path_151" data-name="Path 151" d="M1254.737,301.6c-.023,0-.045,0-.068,0-.739.056-1.248,1.1-1.149,2.321.094,1.187.732,2.112,1.44,2.112l.068,0c.734-.058,1.247-1.1,1.15-2.324-.095-1.186-.732-2.11-1.441-2.11" transform="translate(-771.647 -183.115)" fill="#7f879d"/>
    <path id="Path_152" data-name="Path 152" d="M1253.412,325.117c-.21,0-.427.009-.647.026a4.637,4.637,0,0,0-3.277,1.321,9.692,9.692,0,0,0,3.361.535,15.439,15.439,0,0,0,3.61-.445c0-.042,0-.084,0-.127-.061-.771-1.372-1.311-3.047-1.311" transform="translate(-768.79 -199.834)" fill="#fbcfc1"/>
    <path id="Path_153" data-name="Path 153" d="M1254.639,287.5a18.048,18.048,0,0,0-4.588,1.1,1.058,1.058,0,0,0,.411.081h.055c.309-.014.588-.026.836-.026a3.375,3.375,0,0,1,1.33.21,4.242,4.242,0,0,1,1.421,1.044,1.082,1.082,0,1,0,1.546-1.513,8.114,8.114,0,0,0-1.012-.891" transform="translate(-769.19 -173.094)" fill="#73789d"/>
    <path id="Path_154" data-name="Path 154" d="M1181.3,297.731l-.036.056c.036.021.078.046.131.076l-.095-.132m-5.93-1.266a18.844,18.844,0,0,0-3.315.3,22.862,22.862,0,0,0-2.722.667c-.044.015-.089.028-.138.043a27.452,27.452,0,0,0-3.564,1.423l-.046.026a2.758,2.758,0,0,0-.282.225,6.74,6.74,0,0,0,.41.6c.03-.03.061-.057.089-.08l.143-.119.028-.021a26.933,26.933,0,0,1,3.3-1.326c.714-.232,1.4-.415,2.051-.561a18.577,18.577,0,0,1,4.04-.462c.431,0,.839.017,1.224.046a13.3,13.3,0,0,1,2.926.544,8.924,8.924,0,0,1,1.066.4l.214.1c.042.187.087.381.131.577.147.653.292,1.349.406,2.059a15.449,15.449,0,0,1,.221,2.454,5.364,5.364,0,0,1-1.345,3.988,6.547,6.547,0,0,1-1.134.876,13.9,13.9,0,0,1-6.226,1.8c-.276.016-.55.025-.817.025h-.033a11.527,11.527,0,0,1-1.58-.1c-.119-.016-.237-.037-.352-.063a4.348,4.348,0,0,1-.97-.337c.12.29.249.6.38.925a5.3,5.3,0,0,0,.75.176l.1.013a12.267,12.267,0,0,0,1.677.108c.154,0,.311,0,.467-.009a16.63,16.63,0,0,0,2.693-.312,13.539,13.539,0,0,0,3.883-1.369,8,8,0,0,0,1.67-1.214,6.078,6.078,0,0,0,1.563-4.5c0-.363-.017-.729-.047-1.1-.056-.677-.156-1.353-.273-2.006a2.542,2.542,0,0,0-.427.338,7.488,7.488,0,0,0-.313-2.748l-.107.18-.351.08.351-.08.107-.18c-.011-.043-.024-.085-.035-.128,0,0,.026.021.078.053l.036-.056a11.3,11.3,0,0,0-4.379-1.194c-.48-.045-1-.072-1.551-.072" transform="translate(-708.948 -179.467)" fill="#475066"/>
    <path id="Path_155" data-name="Path 155" d="M1242.9,285.4a22.678,22.678,0,0,1,2.5-.134,26.955,26.955,0,0,1,3.291.208l.049.016a3.038,3.038,0,0,1,.3.124,3.5,3.5,0,0,1,.8.518,2.738,2.738,0,0,1,.934,1.815,18.516,18.516,0,0,1,.1,1.888,13.689,13.689,0,0,1-.206,2.436,8.956,8.956,0,0,1-.5,1.766,5,5,0,0,1-2.379,2.732,12.946,12.946,0,0,1-2.664.944,15.438,15.438,0,0,1-3.61.445,9.691,9.691,0,0,1-3.361-.535c-.161-.061-.318-.128-.469-.2a5.556,5.556,0,0,1-2.63-3.611,24.806,24.806,0,0,1-.82-4.808,11.836,11.836,0,0,1,4.082-2.507,18.048,18.048,0,0,1,4.588-1.1m2.5-.856a22.716,22.716,0,0,0-3.515.264,18.149,18.149,0,0,0-4.14,1.14,11.566,11.566,0,0,0-4.156,2.691l-.046.146q.151-.142.3-.311a17.536,17.536,0,0,0,.463,2.966c-.183-.06-.361-.107-.531-.146a18.071,18.071,0,0,0,.588,2.73,6.254,6.254,0,0,0,3.006,4.049,6.845,6.845,0,0,0,.661.273,10.51,10.51,0,0,0,3.482.533,16.1,16.1,0,0,0,2.979-.29,14.368,14.368,0,0,0,3.618-1.173,5.725,5.725,0,0,0,2.724-3.107c.055-.137.107-.275.155-.416a12.558,12.558,0,0,0,.6-4.058c0-.265-.007-.531-.018-.8l-.363.007s.14-2.053-.8-2.832l.518.089a3.637,3.637,0,0,0-.856-.9,4,4,0,0,0-1.215-.631l-.052-.01-.093-.011a28.009,28.009,0,0,0-3.319-.206" transform="translate(-757.455 -170.989)" fill="#475066"/>
    <path id="Path_156" data-name="Path 156" d="M1224.384,298.133q-.151.168-.3.311a3.184,3.184,0,0,1-2.217.974,3.032,3.032,0,0,1-1.422-.368c-.053-.029-.095-.054-.131-.076h0c-.052-.033-.078-.053-.078-.053.011.043.024.085.035.128h0a7.491,7.491,0,0,1,.313,2.748,2.537,2.537,0,0,1,.427-.338,3.39,3.39,0,0,1,.422-.237,4.1,4.1,0,0,1,1.783-.393,5.078,5.078,0,0,1,1.1.125c.17.038.348.086.531.146a17.542,17.542,0,0,1-.463-2.966" transform="translate(-747.994 -180.652)" fill="#475066"/>
    <path id="Path_157" data-name="Path 157" d="M1291.9,290.316c.935.778.8,2.832.8,2.832l.363-.007,1.026-.02c-.115-.829-.252-1.661-.42-2.5l-1.245-.216-.518-.089" transform="translate(-798.94 -175.096)" fill="#475066"/>
    <path id="Path_158" data-name="Path 158" d="M1158.811,241.432c-1.823.453-3.466.892-4.842,1.3,0,0,1.765,11.5,4.56,24.765,1.154,1.952,2.841,4.863,4.626,4.863l.08,0,.039,0-.152-.153-.207-.209c0-.027,0-.053,0-.08.075-1.525-.755-3.783-1.5-5.611-.131-.324-.26-.635-.38-.925-.134-.323-.259-.621-.364-.887-.391-.974-1.32-1.942-1.652-3.034-.421-1.389-.062-2.847-.422-4.267a4.926,4.926,0,0,0-.95-1.615,6.742,6.742,0,0,1-.41-.6,2.909,2.909,0,0,1-.382-1.009c-.259-1.594.69-2.985.922-4.407a35.772,35.772,0,0,0,.21-4.7,9.122,9.122,0,0,1,.68-3.062c.047-.117.093-.239.135-.363m35.061-7.112c-1.148.409-1.853.618-1.865.623a.725.725,0,0,1-.75-.219l-1.847.342c.664,1.109,1.216,2.191,1.633,3.035.911,1.843,1.066,3.588,2.085,5.41a21.881,21.881,0,0,1,2.234,6.14c.09.392.175.779.252,1.166.168.839.305,1.67.42,2.5.165,1.178.289,2.354.4,3.554.026.282.053.567.081.853.113,1.209.228,2.446.375,3.737.187,1.643,1.289,3.943.969,5.6a2.505,2.505,0,0,1-.091.35c-.352,1.022-.6,1.724-.759,2.342a6.308,6.308,0,0,0-.191,1.1c-.007.078-.012.157-.015.238a10.992,10.992,0,0,0,.061,1.567,21.855,21.855,0,0,0,2.606,5.705c.013.019.029.037.042.053a.477.477,0,0,0,.368.167.719.719,0,0,0,.109-.009l.017.015a1.367,1.367,0,0,0,.537.1c1.594,0,4.118-2.1,4.892-3.47a5.446,5.446,0,0,0,.258-.535,5.73,5.73,0,0,0-.113-.643l-11.714-39.721" transform="translate(-700.889 -135.29)" fill="#b9d0e4"/>
    <path id="Path_159" data-name="Path 159" d="M1285.524,234.078s-.96.172-2.594.473a.725.725,0,0,0,.75.219c.012,0,.717-.214,1.865-.623l-.021-.07" transform="translate(-792.562 -135.118)" fill="#475066"/>
    <path id="Path_160" data-name="Path 160" d="M1148.949,237.132c18.12-1.471,38.551-6.518,38.551-6.518,2.98-.743,2.048-2.92,2.048-2.92-.716-2.105-3.441-.934-3.441-.934-18,5.635-37.237,6.3-37.237,6.3s-2.071.1-1.958,1.991C1146.911,235.055,1146.929,237.3,1148.949,237.132Z" transform="translate(-695.869 -129.686)" fill="#fff"/>
    <path id="Path_161" data-name="Path 161" d="M1303.92,808.75l-2.025,1.841,2.764,3.038,2.024-1.842-2.763-3.037m1.48-1.344-.7.635,2.762,3.038.7-.636-2.763-3.037" transform="translate(-806.044 -542.673)" fill="#a3d9ee"/>
    <path id="Path_162" data-name="Path 162" d="M1310.91,820.885l11.8,12.979a2.58,2.58,0,0,0,3.819-3.471l-11.8-12.979-3.818,3.471" transform="translate(-812.452 -549.787)" fill="#df294a"/>
    <path id="Path_163" data-name="Path 163" d="M1318.624,825.6a2.8,2.8,0,0,1-3.943-.187l-14.852-16.328,4.13-3.758,14.852,16.33a2.8,2.8,0,0,1-.187,3.943m-18.2-16.488,14.567,16.017a2.368,2.368,0,1,0,3.5-3.187l-14.566-16.015-3.5,3.185" transform="translate(-804.574 -541.198)" fill="#fff"/>
    <path id="Path_164" data-name="Path 164" d="M1309.679,809.6l-.781.709,2.763,3.037.78-.708-2.763-3.038" transform="translate(-811.022 -544.233)" fill="#c2e6f6"/>
    <path id="Path_165" data-name="Path 165" d="M1319.233,820.109l-.78.708,13.379,14.71a2.353,2.353,0,0,0,.478-1.04l-13.076-14.378" transform="translate(-817.814 -551.703)" fill="#e86a7d"/>
    <path id="Path_166" data-name="Path 166" d="M1325.173,826.632a2.353,2.353,0,0,1-.478,1.04l.141.156a2.542,2.542,0,0,0,.5-1.013l-.166-.183m-15.982-17.573-.777.712.14.155.781-.709-.143-.157" transform="translate(-810.678 -543.848)" fill="#fff"/>
    <path id="Path_167" data-name="Path 167" d="M1292.478,791.865l-5.219,4.747-4.865-5.348,5.222-4.748Z" transform="translate(-792.182 -527.823)" fill="#fcc000"/>
    <path id="Path_168" data-name="Path 168" d="M1290.255,806.62l-.011.244-.243-.012-3.6-3.953.011-.242.242.011Z" transform="translate(-795.033 -539.296)" fill="#f19a12"/>
    <path id="Path_169" data-name="Path 169" d="M1292.475,804.6l-.011.242-.244-.012-3.6-3.953.011-.242.243.011Z" transform="translate(-796.611 -537.858)" fill="#f19a12"/>
    <path id="Path_170" data-name="Path 170" d="M1294.7,802.578l-.011.243-.243-.012-3.6-3.954.011-.241.242.011Z" transform="translate(-798.193 -536.422)" fill="#f19a12"/>
    <path id="Path_171" data-name="Path 171" d="M1296.923,800.557l-.011.244-.243-.014-3.6-3.952.011-.242.243.011Z" transform="translate(-799.773 -534.987)" fill="#f19a12"/>
    <path id="Path_172" data-name="Path 172" d="M1299.145,798.532l-.011.242-.241-.012-3.6-3.953.012-.242.24.011Z" transform="translate(-801.353 -533.545)" fill="#f19a12"/>
    <path id="Path_173" data-name="Path 173" d="M1301.372,796.512l-.012.242-.241-.012-3.6-3.953.011-.242.242.011Z" transform="translate(-802.936 -532.11)" fill="#f19a12"/>
    <path id="Path_174" data-name="Path 174" d="M1303.594,794.489l-.01.243-.243-.014-3.6-3.953.011-.242.242.011Z" transform="translate(-804.516 -530.671)" fill="#f19a12"/>
    <path id="Path_175" data-name="Path 175" d="M1319.571,805.02l-2.644-.644s-4.433-1.6-3.838-3.8c.368-1.372,6.736.422,6.736.422s1.022.055,6.551.273a16.151,16.151,0,0,0,3.64.009c1.736-.051,4.275.1,5.888,1.3,2.313,1.719,7.114,1.6,5.449,5.653-2.026,3.524-10.305,9.846-16.709,11.937,0,0-2.657.4-2.806-1.427,0,0-2.524-.361-2.607-2.573a2.578,2.578,0,0,1-2.441-3.09s-4.28.037-4.229-3.541c.1.194,1.013,1.615,4.678-1.71l2.424-1.707S1321.1,805.339,1319.571,805.02Z" transform="translate(-813.626 -537.448)" fill="#3393c4"/>
    <path id="Path_176" data-name="Path 176" d="M1447.7,642.652s-7.97-4.883-28.683,10.754L1384.063,688.4s3.94,9.867,9.621,11.592c0,0,38.317-20.816,53.044-36.762,0,0,6.486-5.151,6.37-8.471C1451.185,648.369,1451.136,648.39,1447.7,642.652Z" transform="translate(-864.453 -425.043)" fill="#56bddc"/>
    <path id="Path_177" data-name="Path 177" d="M1383.336,464.43a16.125,16.125,0,0,0-.234,2.8c.023,8.142,5.307,18.307,12.786,29.478s17.222,23.283,26.261,35.085a.721.721,0,1,0,1.145-.878c-9.052-11.818-18.771-23.928-26.208-35.011s-12.565-21.16-12.543-28.674a14.8,14.8,0,0,1,.211-2.553.721.721,0,1,0-1.42-.249Z" transform="translate(-863.77 -298.441)" fill="#161d2f" opacity="0.1"/>
    <path id="Path_178" data-name="Path 178" d="M1429.308,680.047c-10.839,8.338-20.332,19.473-30.7,29.963a.721.721,0,0,0,1.026,1.014c10.418-10.541,19.888-21.63,30.558-29.834a.721.721,0,1,0-.879-1.143Z" transform="translate(-874.641 -452.032)" fill="#161d2f" opacity="0.1"/>
    <path id="Path_179" data-name="Path 179" d="M1184.866,507.566c-.468,3.411-1.977,6.554-2.86,10.021-.776,3.08-1.273,6.218-1.927,9.157a77.648,77.648,0,0,0-1.38,16.295c0,.889.007,1.766.017,2.624.081,6.041,2.3,11.429,3.763,17,.861,3.266,2.238,6.117,3.259,9.183,1.306,3.861,1.437,8.076,3.531,12.125a.721.721,0,0,0,1.279-.667c-1.926-3.672-2.071-7.781-3.439-11.917-1.067-3.176-2.422-6-3.234-9.091-1.5-5.695-3.652-10.969-3.716-16.654-.011-.854-.017-1.725-.017-2.606a76.325,76.325,0,0,1,1.346-15.982c.665-3,1.161-6.121,1.918-9.116.821-3.279,2.37-6.477,2.889-10.176a.721.721,0,0,0-1.429-.2Z" transform="translate(-718.469 -329.087)" fill="#161d2f" opacity="0.15"/>
    <path id="Path_180" data-name="Path 180" d="M1291.55,656c2.672,5.21,4.081,11.255,5.341,17.087.3,1.386.644,3.378,1.222,5.273a9.43,9.43,0,0,0,2.778,4.814.722.722,0,0,0,.872-1.15,8.174,8.174,0,0,1-2.269-4.084c-.546-1.783-.882-3.726-1.192-5.158-1.27-5.846-2.688-12.01-5.469-17.439a.721.721,0,0,0-1.283.657Z" transform="translate(-798.633 -434.299)" fill="#161d2f" opacity="0.3"/>
    <path id="Path_181" data-name="Path 181" d="M1235,853.887c2.994,6.072,8.234,10.459,14.239,13.522a59.336,59.336,0,0,0,19.013,5.628.722.722,0,0,0,.185-1.432,57.873,57.873,0,0,1-18.541-5.48c-5.82-2.969-10.788-7.166-13.6-12.876a.723.723,0,0,0-1.3.638Z" transform="translate(-758.437 -574.974)" fill="#161d2f" opacity="0.15"/>
    <path id="Path_182" data-name="Path 182" d="M1319.738,1098.033c.255,27.838,17.963,59.351,29,74a.722.722,0,0,0,1.153-.87c-10.914-14.443-28.5-45.893-28.706-73.141a.722.722,0,1,0-1.443.012Z" transform="translate(-818.727 -748.749)" fill="#161d2f" opacity="0.15"/>
    <path id="Path_183" data-name="Path 183" d="M1444.369,1026.61a16.925,16.925,0,0,1,.121,2.127c0,4.313-1.225,10.784-3.294,17.527a91.132,91.132,0,0,1-8.272,19.313.721.721,0,1,0,1.238.74,92.563,92.563,0,0,0,8.415-19.63c2.094-6.846,3.351-13.382,3.355-17.949a17.979,17.979,0,0,0-.133-2.312.721.721,0,1,0-1.43.185Z" transform="translate(-899.114 -697.916)" fill="#161d2f" opacity="0.15"/>
    <path id="Path_184" data-name="Path 184" d="M1065.836,648.053a14.889,14.889,0,0,1,9.088,6.983,27.45,27.45,0,0,1,3.367,9.745.721.721,0,1,0,1.424-.231,28.929,28.929,0,0,0-3.558-10.263,16.355,16.355,0,0,0-9.952-7.628.721.721,0,1,0-.369,1.395Z" transform="translate(-637.858 -428.387)" fill="#161d2f" opacity="0.15"/>
  </g>
</svg>
